<svg width="25" height="24" viewBox="0 0 25 24" fill="none" xmlns="http://www.w3.org/2000/svg">
<rect width="25" height="24" fill="#262626"/>
<g id="Account Settings">
<g clip-path="url(#clip0_1_411)">
<rect x="-184" y="-775" width="393" height="852" rx="8" fill="#12181C"/>
<g id="Bottom Navigation" filter="url(#filter0_b_1_411)">
<path d="M-184 -8H209V77H-184V-8Z" fill="#12181C"/>
<path d="M-184 -7.5H209V-8.5H-184V-7.5Z" fill="#475569"/>
<g id="wrapper">
<g id="Bottom Navigation Tab">
<g id="mingcute:car-line" clip-path="url(#clip1_1_411)">
<g id="Group">
<path id="Vector" d="M16.2641 4C16.8211 4.00002 17.3672 4.15513 17.841 4.44797C18.3149 4.7408 18.6979 5.15979 18.9471 5.658L20.3301 8.423C20.5741 8.323 20.8171 8.222 21.0531 8.105C21.2904 7.98645 21.5652 7.96705 21.8169 8.05106C22.0685 8.13508 22.2765 8.31563 22.3951 8.553C22.5136 8.79037 22.533 9.06511 22.449 9.31678C22.365 9.56846 22.1844 9.77645 21.9471 9.895C21.4531 10.141 21.2271 10.217 21.2271 10.217L22.1831 12.13C22.3921 12.547 22.5001 13.006 22.5001 13.472V16C22.5007 16.4222 22.4119 16.8397 22.2395 17.2251C22.0672 17.6105 21.8152 17.955 21.5001 18.236V19.5C21.5001 19.8978 21.342 20.2794 21.0607 20.5607C20.7794 20.842 20.3979 21 20.0001 21C19.6022 21 19.2207 20.842 18.9394 20.5607C18.6581 20.2794 18.5001 19.8978 18.5001 19.5V19H6.50007V19.5C6.50007 19.8978 6.34204 20.2794 6.06073 20.5607C5.77943 20.842 5.3979 21 5.00007 21C4.60225 21 4.22072 20.842 3.93941 20.5607C3.65811 20.2794 3.50007 19.8978 3.50007 19.5V18.236C2.88607 17.686 2.50007 16.888 2.50007 16V13.472C2.50026 13.0065 2.60879 12.5473 2.81707 12.131L3.77307 10.217C3.53086 10.1166 3.29144 10.0095 3.05507 9.896C2.9372 9.83752 2.83203 9.75635 2.74559 9.65715C2.65914 9.55795 2.59313 9.44266 2.55132 9.3179C2.50952 9.19314 2.49275 9.06135 2.50197 8.93009C2.51119 8.79884 2.54623 8.67069 2.60507 8.553C2.72624 8.31686 2.93541 8.13785 3.18742 8.05459C3.43944 7.97134 3.71408 7.99052 3.95207 8.108C4.18707 8.222 4.42807 8.325 4.67007 8.423L6.05307 5.658C6.30226 5.15979 6.68524 4.7408 7.15911 4.44797C7.63298 4.15513 8.17902 4.00002 8.73607 4H16.2641ZM19.3341 10.904C17.6341 11.441 15.2151 12 12.5001 12C9.78507 12 7.36607 11.44 5.66607 10.904L4.60607 13.024C4.53638 13.1631 4.50008 13.3165 4.50007 13.472V16C4.50007 16.2652 4.60543 16.5196 4.79297 16.7071C4.9805 16.8946 5.23486 17 5.50007 17H19.5001C19.7653 17 20.0196 16.8946 20.2072 16.7071C20.3947 16.5196 20.5001 16.2652 20.5001 16V13.472C20.4999 13.3168 20.4636 13.1638 20.3941 13.025L19.3341 10.904ZM8.00007 13C8.3979 13 8.77943 13.158 9.06073 13.4393C9.34204 13.7206 9.50007 14.1022 9.50007 14.5C9.50007 14.8978 9.34204 15.2794 9.06073 15.5607C8.77943 15.842 8.3979 16 8.00007 16C7.60225 16 7.22072 15.842 6.93941 15.5607C6.65811 15.2794 6.50007 14.8978 6.50007 14.5C6.50007 14.1022 6.65811 13.7206 6.93941 13.4393C7.22072 13.158 7.60225 13 8.00007 13ZM17.0001 13C17.3979 13 17.7794 13.158 18.0607 13.4393C18.342 13.7206 18.5001 14.1022 18.5001 14.5C18.5001 14.8978 18.342 15.2794 18.0607 15.5607C17.7794 15.842 17.3979 16 17.0001 16C16.6022 16 16.2207 15.842 15.9394 15.5607C15.6581 15.2794 15.5001 14.8978 15.5001 14.5C15.5001 14.1022 15.6581 13.7206 15.9394 13.4393C16.2207 13.158 16.6022 13 17.0001 13ZM16.2641 6H8.73607C8.55041 6.0001 8.36844 6.05188 8.21055 6.14955C8.05265 6.24722 7.92506 6.38692 7.84207 6.553L6.57207 9.09C8.12007 9.555 10.2061 10 12.5001 10C14.7941 10 16.8801 9.555 18.4271 9.09L17.1581 6.553C17.0751 6.38692 16.9475 6.24722 16.7896 6.14955C16.6317 6.05188 16.4497 6.0001 16.2641 6Z" fill="#717171"/>
</g>
</g>
</g>
</g>
</g>
</g>
</g>
<defs>
<filter id="filter0_b_1_411" x="-204" y="-28.5" width="433" height="125.5" filterUnits="userSpaceOnUse" color-interpolation-filters="sRGB">
<feFlood flood-opacity="0" result="BackgroundImageFix"/>
<feGaussianBlur in="BackgroundImageFix" stdDeviation="10"/>
<feComposite in2="SourceAlpha" operator="in" result="effect1_backgroundBlur_1_411"/>
<feBlend mode="normal" in="SourceGraphic" in2="effect1_backgroundBlur_1_411" result="shape"/>
</filter>
<clipPath id="clip0_1_411">
<rect x="-184" y="-775" width="393" height="852" rx="8" fill="white"/>
</clipPath>
<clipPath id="clip1_1_411">
<rect width="24" height="24" fill="white" transform="translate(0.5)"/>
</clipPath>
</defs>
</svg>
