<svg width="45" height="28" viewBox="0 0 45 28" fill="none" xmlns="http://www.w3.org/2000/svg">
<g id="brandico:visa" clip-path="url(#clip0_410_49708)">
<path id="Vector" d="M1.78356 0C0.798791 0 0.00012207 0.798446 0.00012207 1.78344V26.2166C0.00012207 27.2015 0.799192 28 1.78356 28H42.8027C43.7874 28 44.5861 27.2016 44.5861 26.2166V1.78344C44.5861 0.79849 43.787 0 42.8027 0H1.78356ZM26.6291 8.34454C27.7142 8.34454 28.5839 8.58423 29.1384 8.80711L28.7595 11.1911L28.5087 11.0643C27.9921 10.8414 27.3285 10.6269 26.4131 10.6421C25.3174 10.6421 24.8108 11.1309 24.8108 11.5882C24.8045 12.1035 25.4027 12.4433 26.3811 12.9522C27.9958 13.7374 28.7422 14.6894 28.7316 15.9409C28.7099 18.2244 26.8 19.7001 23.8578 19.7001C22.6026 19.6862 21.3933 19.4205 20.7396 19.1134L21.1325 16.6501L21.4934 16.8256C22.4126 17.2364 23.0078 17.4025 24.1281 17.4025C24.9326 17.4025 25.796 17.0656 25.8029 16.3282C25.8081 15.8467 25.442 15.5034 24.3524 14.9642C23.2907 14.4379 21.8832 13.5563 21.8988 11.9755C21.9154 9.83714 23.8634 8.34454 26.6291 8.34454ZM3.94317 8.69427H8.4617C9.07016 8.71727 9.56141 8.91318 9.73101 9.57346L10.705 14.6005C10.7051 14.601 10.7048 14.6028 10.705 14.6033L10.9975 16.1095L13.7409 8.69427H16.7087L12.2975 19.5482L9.3325 19.551L6.97226 10.7926C8.37663 11.5366 9.57224 12.3974 10.2647 13.582C10.0861 13.2072 9.85091 12.7841 9.54991 12.367C9.19937 11.8814 8.44234 11.2544 8.12592 10.9876C7.02331 10.0582 5.52589 9.30746 3.90835 8.91024L3.94317 8.69427ZM17.8889 8.7068H20.7911L18.9756 19.544H16.0734L17.8889 8.7068ZM34.2812 8.7068H36.4798L38.7816 19.544H36.1426C36.1426 19.544 35.8808 18.299 35.7957 17.9194C35.3809 17.9194 32.48 17.9152 32.1536 17.9152C32.0431 18.2086 31.5545 19.544 31.5545 19.544H28.5686L32.7917 9.6069C33.0907 8.90075 33.6004 8.7068 34.2812 8.7068ZM34.4971 11.6216C34.3543 12.0247 34.1057 12.6757 34.1223 12.6471C34.1223 12.6471 33.2289 15.0298 32.9952 15.6483L35.3429 15.6469C35.1248 14.6135 34.9065 13.5802 34.688 12.5469L34.4971 11.6217V11.6216Z" fill="white"/>
</g>
<defs>
<clipPath id="clip0_410_49708">
<rect width="44.586" height="28" fill="white"/>
</clipPath>
</defs>
</svg>
