<svg width="55" height="38" viewBox="0 0 55 38" fill="none" xmlns="http://www.w3.org/2000/svg">
<g clip-path="url(#clip0_581_4469)">
<path d="M24.1228 24.7026H28.3684C30.1894 24.7026 31.6643 27.0915 31.6643 30.0386C31.6643 32.9857 30.1894 35.3746 28.3684 35.3746H24.1228C22.3019 35.3746 20.8256 32.9857 20.8256 30.0386C20.8256 27.0915 22.3047 24.7026 24.1228 24.7026Z" fill="#71C4F4"/>
<path opacity="0.2" d="M24.1228 24.7026H28.3684C30.1894 24.7026 31.6643 27.0915 31.6643 30.0386C31.6643 32.9857 30.1894 35.3746 28.3684 35.3746H24.1228C22.3019 35.3746 20.8256 32.9857 20.8256 30.0386C20.8256 27.0915 22.3047 24.7026 24.1228 24.7026Z" fill="black"/>
<path d="M43.2915 24.7026H47.5371C49.3581 24.7026 50.833 27.0915 50.833 30.0386C50.833 32.9857 49.3581 35.3746 47.5371 35.3746H43.2915C41.4706 35.3746 39.9943 32.9857 39.9943 30.0386C39.9943 27.0915 41.4706 24.7026 43.2915 24.7026Z" fill="#71C4F4"/>
<path opacity="0.2" d="M43.2915 24.7026H47.5371C49.3581 24.7026 50.833 27.0915 50.833 30.0386C50.833 32.9857 49.3581 35.3746 47.5371 35.3746H43.2915C41.4706 35.3746 39.9943 32.9857 39.9943 30.0386C39.9943 27.0915 41.4706 24.7026 43.2915 24.7026Z" fill="black"/>
<path d="M2.76929 20.6541L1.80437 21.4812C1.57981 21.6741 1.41266 21.925 1.32124 22.2066C1.22982 22.4882 1.21765 22.7894 1.28608 23.0774L1.50663 24.0079L2.76929 20.6541Z" fill="#71C4F4"/>
<path d="M1.01455 26.0673C1.18147 24.247 1.6579 22.4685 2.42332 20.8085L2.75691 20.0931H10.7919L6.62483 32.0856C5.1589 31.7194 3.80072 31.0108 2.66179 30.0179L2.5653 29.9352C2.01929 29.4591 1.59403 28.8603 1.32445 28.1879C1.05486 27.5155 0.948656 26.7887 1.01455 26.0673Z" fill="#71C4F4"/>
<path opacity="0.5" d="M1.01455 26.0673C1.18147 24.247 1.6579 22.4685 2.42332 20.8085L2.75691 20.0931H10.7919L6.62483 32.0856C5.1589 31.7194 3.80072 31.0108 2.66179 30.0179L2.5653 29.9352C2.01929 29.4591 1.59403 28.8603 1.32445 28.1879C1.05486 27.5155 0.948656 26.7887 1.01455 26.0673Z" fill="white"/>
<path d="M11.6837 35.3746C13.5046 35.3746 14.981 32.9857 14.981 30.0386C14.981 27.0915 13.5046 24.7026 11.6837 24.7026H7.45327V35.3746H11.6837Z" fill="#71C4F4"/>
<path d="M7.43811 35.3746C5.61709 35.3746 4.14087 32.9856 4.14087 30.0386C4.14087 27.0916 5.61709 24.7026 7.43811 24.7026C9.25912 24.7026 10.7354 27.0916 10.7354 30.0386C10.7354 32.9856 9.25912 35.3746 7.43811 35.3746Z" fill="#71C4F4"/>
<path opacity="0.2" d="M7.43807 33.413C6.16061 33.413 5.12503 31.9022 5.12503 30.0386C5.12503 28.1749 6.16061 26.6642 7.43807 26.6642C8.71552 26.6642 9.7511 28.1749 9.7511 30.0386C9.7511 31.9022 8.71552 33.413 7.43807 33.413Z" fill="black"/>
<path d="M35.7514 32.0856L43.6802 19.3612C43.6802 19.3612 37.4069 13.0203 23.7051 13.0203C11.8422 13.0203 4.73769 16.9378 2.75273 20.0945L7.45324 24.704C12.0021 24.704 11.9773 29.5286 12.6017 31.5618C12.6491 31.7149 12.7446 31.8486 12.8739 31.9432C13.0033 32.0378 13.1597 32.0882 13.3199 32.087H35.7514" fill="#71C4F4"/>
<path opacity="0.5" d="M35.7514 32.0856L43.6802 19.3612C43.6802 19.3612 37.4069 13.0203 23.7051 13.0203C11.8422 13.0203 4.73769 16.9378 2.75273 20.0945L7.45324 24.704C12.0021 24.704 11.9773 29.5286 12.6017 31.5618C12.6491 31.7149 12.7446 31.8486 12.8739 31.9432C13.0033 32.0378 13.1597 32.0882 13.3199 32.087H35.7514" fill="white"/>
<path d="M30.8496 35.3746C32.6705 35.3746 34.1469 32.9857 34.1469 30.0386C34.1469 27.0915 32.6692 24.7026 30.8496 24.7026H26.6192V35.3746H30.8496Z" fill="#71C4F4"/>
<path d="M26.604 35.3746C24.783 35.3746 23.3068 32.9856 23.3068 30.0386C23.3068 27.0916 24.783 24.7026 26.604 24.7026C28.425 24.7026 29.9012 27.0916 29.9012 30.0386C29.9012 32.9856 28.425 35.3746 26.604 35.3746Z" fill="#71C4F4"/>
<path opacity="0.2" d="M26.6041 33.413C25.3266 33.413 24.291 31.9022 24.291 30.0386C24.291 28.1749 25.3266 26.6642 26.6041 26.6642C27.8815 26.6642 28.9171 28.1749 28.9171 30.0386C28.9171 31.9022 27.8815 33.413 26.6041 33.413Z" fill="black"/>
<path d="M32.4087 31.0352C32.0048 28.6505 29.627 24.7026 26.6192 24.7026L23.7093 19.3612H43.6802C44.9539 19.3612 50.9088 21.5129 53.0771 23.6812C54.5934 25.1975 54.7519 26.7262 54.9311 30.6134C54.9669 31.406 54.2377 32.0952 53.3611 32.0952C45.9919 32.0952 37.0733 32.1242 33.8271 32.1338C33.1103 32.1297 32.5162 31.6734 32.4087 31.0352Z" fill="#71C4F4"/>
<path opacity="0.5" d="M32.4087 31.0352C32.0048 28.6505 29.627 24.7026 26.6192 24.7026L23.7093 19.3612H43.6802C44.9539 19.3612 50.9088 21.5129 53.0771 23.6812C54.5934 25.1975 54.7519 26.7262 54.9311 30.6134C54.9669 31.406 54.2377 32.0952 53.3611 32.0952C45.9919 32.0952 37.0733 32.1242 33.8271 32.1338C33.1103 32.1297 32.5162 31.6734 32.4087 31.0352Z" fill="white"/>
<path opacity="0.3" d="M23.7093 13.0189C37.327 13.0189 43.541 19.2633 43.6816 19.3598H29.9054C29.9054 19.3598 23.9781 14.2388 20.0537 13.1485C21.2143 13.064 22.4329 13.0208 23.7093 13.0189Z" fill="#71C4F4"/>
<path opacity="0.7" d="M40.7442 24.8115C38.8543 24.0947 33.1462 22.0836 31.5899 22.606C30.0337 23.1284 33.8023 24.9949 34.7521 25.243C35.7018 25.4911 36.3235 24.9935 37.7447 25.6813C39.1659 26.3692 43.0338 25.6772 40.7442 24.8115Z" fill="#71C4F4"/>
<path opacity="0.2" d="M17.3326 32.1573C17.3473 32.1572 17.3617 32.1529 17.374 32.1449C17.3897 32.134 17.4006 32.1173 17.4042 32.0985C17.4078 32.0797 17.4039 32.0602 17.3933 32.0442C17.3643 32.0029 14.5716 27.7972 14.5716 19.3625C14.5716 19.3432 14.5639 19.3246 14.5502 19.3109C14.5365 19.2972 14.5179 19.2895 14.4985 19.2895C14.489 19.2895 14.4796 19.2914 14.4708 19.2951C14.462 19.2987 14.454 19.3042 14.4473 19.311C14.4407 19.3178 14.4354 19.3258 14.4319 19.3347C14.4284 19.3435 14.4267 19.353 14.4268 19.3625C14.4268 27.8482 17.2444 32.0856 17.2733 32.1269C17.2799 32.1365 17.2888 32.1443 17.2992 32.1496C17.3095 32.1549 17.321 32.1575 17.3326 32.1573Z" fill="#71C4F4"/>
<path opacity="0.2" d="M47.5922 25.6469H47.6074L51.4023 24.7729C51.4125 24.772 51.4225 24.7689 51.4315 24.7639C51.4404 24.7588 51.4482 24.7518 51.4542 24.7434C51.4603 24.7351 51.4644 24.7255 51.4664 24.7154C51.4684 24.7053 51.4682 24.6948 51.4658 24.6848C51.4634 24.6748 51.4588 24.6654 51.4525 24.6573C51.4461 24.6491 51.4381 24.6425 51.4289 24.6378C51.4197 24.6331 51.4096 24.6304 51.3993 24.6299C51.389 24.6294 51.3787 24.6312 51.3692 24.6351L47.5881 25.5035L41.3341 24.7895C41.3239 24.7855 41.3129 24.7839 41.302 24.7848C41.2911 24.7858 41.2806 24.7892 41.2712 24.7948C41.2618 24.8004 41.2539 24.8081 41.2479 24.8173C41.242 24.8265 41.2382 24.8369 41.2369 24.8477C41.2356 24.8586 41.2368 24.8696 41.2404 24.8799C41.244 24.8902 41.2499 24.8996 41.2577 24.9073C41.2655 24.915 41.2749 24.9208 41.2853 24.9242C41.2957 24.9277 41.3067 24.9288 41.3175 24.9273L47.584 25.6469H47.5922Z" fill="#71C4F4"/>
<path opacity="0.2" d="M7.45329 24.7757C7.46307 24.7759 7.47279 24.774 7.48181 24.7702C7.49083 24.7664 7.49896 24.7607 7.50567 24.7536C7.51246 24.7468 7.51785 24.7388 7.52153 24.7299C7.52521 24.721 7.5271 24.7115 7.5271 24.7019C7.5271 24.6923 7.52521 24.6828 7.52153 24.674C7.51785 24.6651 7.51246 24.657 7.50567 24.6502C6.18098 23.3504 5.47384 20.315 5.47384 18.6237C5.47402 18.6142 5.47231 18.6047 5.46879 18.5958C5.46527 18.587 5.46001 18.5789 5.45334 18.5721C5.44666 18.5653 5.4387 18.5599 5.42991 18.5562C5.42112 18.5525 5.41169 18.5506 5.40216 18.5506C5.38278 18.5506 5.3642 18.5583 5.3505 18.572C5.3368 18.5857 5.3291 18.6043 5.3291 18.6237C5.3291 20.3412 6.05003 23.4276 7.40366 24.755C7.41712 24.7677 7.43478 24.7751 7.45329 24.7757Z" fill="#71C4F4"/>
<path d="M18.1322 20.8113H16.2423C16.1719 20.8109 16.1044 20.7828 16.0546 20.733C16.0048 20.6831 15.9766 20.6157 15.9763 20.5452C15.9766 20.4748 16.0048 20.4073 16.0546 20.3575C16.1044 20.3077 16.1719 20.2796 16.2423 20.2792H18.1322C18.2026 20.2796 18.2701 20.3077 18.3199 20.3575C18.3697 20.4073 18.3978 20.4748 18.3982 20.5452C18.3978 20.6157 18.3697 20.6831 18.3199 20.733C18.2701 20.7828 18.2026 20.8109 18.1322 20.8113Z" fill="#71C4F4"/>
<path d="M9.84077 20.8113H7.9523C7.88161 20.8113 7.8138 20.7833 7.76369 20.7334C7.71358 20.6836 7.68525 20.6159 7.68488 20.5452C7.68525 20.4746 7.71358 20.4069 7.76369 20.357C7.8138 20.3072 7.88161 20.2792 7.9523 20.2792H9.84077C9.91122 20.2796 9.97867 20.3077 10.0285 20.3575C10.0783 20.4073 10.1064 20.4748 10.1068 20.5452C10.1064 20.6157 10.0783 20.6831 10.0285 20.733C9.97867 20.7828 9.91122 20.8109 9.84077 20.8113Z" fill="#71C4F4"/>
<path opacity="0.7" d="M51.5209 24.8818C51.9096 24.6447 52.5478 24.2698 53.2701 23.8852C53.6653 24.303 53.9819 24.7886 54.2047 25.3188C53.9189 25.3848 53.6526 25.517 53.4273 25.7048C52.5065 26.4133 50.0377 25.7861 51.5209 24.8818Z" fill="#71C4F4"/>
<path opacity="0.3" d="M27.4642 19.3612H8.2101C7.22579 19.3614 6.25812 19.1073 5.40082 18.6237C5.40082 18.6237 8.51612 15.7924 14.7894 14.5724C17.3671 14.0707 19.8111 13.8763 20.5624 13.9246C22.3543 14.8647 25.0988 16.8551 27.4642 19.3612Z" fill="#71C4F4"/>
<path d="M39.0101 31.202H52.7035C52.7773 31.2023 52.8495 31.1812 52.9115 31.1413C52.9734 31.1014 53.0226 31.0444 53.0529 30.9772C53.0832 30.91 53.0934 30.8355 53.0823 30.7626C53.0712 30.6897 53.0392 30.6216 52.9903 30.5665L52.636 30.1668C52.5999 30.1265 52.5557 30.0942 52.5063 30.0721C52.4569 30.05 52.4034 30.0386 52.3493 30.0386H39.3671C39.3132 30.0386 39.2599 30.05 39.2107 30.0721C39.1615 30.0942 39.1175 30.1265 39.0817 30.1668L38.7275 30.5665C38.6787 30.6214 38.6468 30.6891 38.6356 30.7616C38.6243 30.8341 38.6342 30.9083 38.664 30.9753C38.6938 31.0424 38.7423 31.0994 38.8037 31.1396C38.865 31.1798 38.9367 31.2015 39.0101 31.202Z" fill="#71C4F4"/>
<path d="M3.10148 24.8336L3.96301 24.999V22.6625L3.10148 22.8279C2.98432 22.8514 2.8961 23.0085 2.8961 23.196V24.4655C2.89472 24.6516 2.98432 24.8101 3.10148 24.8336Z" fill="#71C4F4"/>
<path d="M17.6317 36.4305C18.3209 36.4305 18.6945 36.2595 18.6945 35.9508C18.6945 35.6875 18.4009 35.4931 17.7957 35.358C16.9833 35.2062 16.1573 35.1387 15.3311 35.1568H4.27316C3.60047 35.1568 3.09596 34.961 2.72792 34.5571C1.7313 33.4668 1.95461 31.0104 2.11726 29.2184C2.1724 28.6092 2.22479 28.033 2.22479 27.585C2.21515 26.988 2.15984 26.3926 2.05937 25.804C1.95599 25.1079 1.87466 24.5634 2.09659 24.3001C2.2427 24.1306 2.54734 24.0493 3.0298 24.0493V23.6123C2.40398 23.6123 2.00286 23.7405 1.76714 24.0148C1.41288 24.4283 1.50799 25.0624 1.6293 25.8674C1.7273 26.4349 1.78168 27.0091 1.79195 27.585C1.79195 28.0137 1.74095 28.5788 1.68581 29.1784C1.50662 31.1565 1.28331 33.6184 2.40812 34.8521C2.85749 35.3429 3.48606 35.5924 4.27591 35.5924H15.3311C17.1161 35.5924 17.9101 35.8019 18.1734 35.9328C17.9967 35.9792 17.8143 36.0001 17.6317 35.9949V36.4305Z" fill="#71C4F4"/>
<path d="M3.03259 23.0733V24.5896C2.83152 24.5896 2.63868 24.5097 2.4965 24.3675C2.35432 24.2254 2.27445 24.0325 2.27445 23.8315C2.27445 23.6304 2.35432 23.4375 2.4965 23.2954C2.63868 23.1532 2.83152 23.0733 3.03259 23.0733Z" fill="#71C4F4"/>
<path d="M9.53883 1.20288H15.3311V36.0238H9.53883V1.20288Z" fill="#263238"/>
<path d="M7.94812 0.774185H14.8348V1.20288H7.94812V0.774185Z" fill="#263238"/>
<path opacity="0.4" d="M7.94813 0.774185H9.53748V1.20288H7.94813V0.774185Z" fill="black"/>
<path d="M11.4796 4.28785H12.4542L11.6023 2.93973H12.6734L13.3888 4.84612H12.4997L13.0414 6.5678L11.4796 4.28785Z" fill="white"/>
<path opacity="0.5" d="M11.5736 24.0657C11.0983 23.5904 11.0983 22.8197 11.5736 22.3444C12.049 21.8691 12.8196 21.8691 13.295 22.3444C13.7703 22.8197 13.7703 23.5904 13.295 24.0657C12.8196 24.5411 12.049 24.5411 11.5736 24.0657Z" fill="#71C4F4"/>
<path d="M17.6317 36.4305C17.6895 36.4305 17.7449 36.4075 17.7857 36.3667C17.8265 36.3258 17.8495 36.2704 17.8495 36.2127C17.8495 36.1549 17.8265 36.0995 17.7857 36.0587C17.7449 36.0178 17.6895 35.9949 17.6317 35.9949C16.9301 35.9949 16.4462 35.8212 16.1512 35.4642C15.473 34.644 15.8108 32.8796 16.1678 31.0104C16.4049 29.7698 16.6502 28.4865 16.6502 27.2886C16.6502 24.5124 15.1532 22.9823 12.435 22.9823C12.4048 22.9799 12.3745 22.9838 12.3459 22.9937C12.3173 23.0036 12.2911 23.0193 12.2689 23.0398C12.2467 23.0603 12.2289 23.0852 12.2168 23.1129C12.2047 23.1407 12.1984 23.1706 12.1984 23.2008C12.1984 23.2311 12.2047 23.261 12.2168 23.2887C12.2289 23.3164 12.2467 23.3413 12.2689 23.3618C12.2911 23.3823 12.3173 23.398 12.3459 23.4079C12.3745 23.4178 12.4048 23.4217 12.435 23.4193C14.1594 23.4193 16.2147 24.0906 16.2147 27.2886C16.2147 28.4396 15.9734 29.7023 15.7405 30.9236C15.3628 32.8961 15.0071 34.7584 15.8149 35.7357C16.1981 36.2044 16.7922 36.4305 17.6317 36.4305Z" fill="#71C4F4"/>
<path opacity="0.5" d="M10.2598 12.247H14.6074V21.0332H10.2598V12.247Z" fill="#71C4F4"/>
<path opacity="0.5" d="M14.6088 12.247V21.0332L13.0511 13.4697L14.6088 12.247Z" fill="#71C4F4"/>
<path d="M11.0854 15.2093L10.9972 14.7806H12.1841L12.2723 15.2093H12.7313L13.5721 19.2922H11.4562L10.6154 15.2093H11.0854Z" fill="#71C4F4"/>
<path opacity="0.4" d="M11.1957 16.6566L11.6286 18.7601C11.6432 18.8323 11.6824 18.8971 11.7394 18.9436C11.7965 18.9901 11.8679 19.0154 11.9415 19.0152H12.9974C13.026 19.0154 13.0544 19.0092 13.0804 18.997C13.1063 18.9848 13.1292 18.9669 13.1473 18.9447C13.1654 18.9224 13.1783 18.8964 13.1851 18.8685C13.1918 18.8407 13.1922 18.8116 13.1862 18.7836L12.7534 16.6801C12.7387 16.608 12.6995 16.5431 12.6425 16.4967C12.5855 16.4502 12.5141 16.4249 12.4405 16.4251H11.3846C11.3559 16.4248 11.3275 16.4311 11.3016 16.4433C11.2756 16.4555 11.2528 16.4733 11.2346 16.4956C11.2165 16.5178 11.2036 16.5438 11.1969 16.5717C11.1901 16.5996 11.1898 16.6286 11.1957 16.6566Z" fill="white"/>
<path opacity="0.4" d="M14.6088 12.247L10.2611 12.2456V13.4697H13.0511L14.6088 12.247Z" fill="#263238"/>
<path d="M9.5388 36.0238H7.45459L7.45459 1.20288H9.5388L9.5388 36.0238Z" fill="#263238"/>
<path opacity="0.4" d="M9.5388 36.0238H7.45459L7.45459 1.20288H9.5388L9.5388 36.0238Z" fill="black"/>
</g>
<defs>
<clipPath id="clip0_581_4469">
<rect width="55" height="36.6667" fill="white" transform="matrix(-1 0 0 1 55 0.666664)"/>
</clipPath>
</defs>
</svg>
