<svg width="55" height="18" viewBox="0 0 55 18" fill="none" xmlns="http://www.w3.org/2000/svg">
<g clip-path="url(#clip0_562_34385)">
<path d="M1.93169 16.891C1.93169 17.2212 13.1934 17.4888 27.0854 17.4888C40.9774 17.4888 52.2391 17.2212 52.2391 16.891C52.2391 16.5608 40.9774 16.2932 27.0854 16.2932C13.1934 16.2932 1.93169 16.5608 1.93169 16.891Z" fill="#F5F5F5"/>
<path d="M16.5891 14.1425L16.0278 9.03069L12.7226 6.68285H9.10013L4.86483 9.51151L4.67772 14.1425L5.62885 14.4702L16.5891 15.0309V14.1425Z" fill="#71C4F4"/>
<path opacity="0.4" d="M16.5891 14.1425L16.0278 9.03069L12.7226 6.68285H9.10013L4.86483 9.51151L4.67772 14.1425L5.62885 14.4702L16.5891 15.0309V14.1425Z" fill="black"/>
<path d="M10.634 16.824C8.18094 16.824 6.19234 14.8052 6.19234 12.3148C6.19234 9.82446 8.18094 7.80563 10.634 7.80563C13.0871 7.80563 15.0757 9.82446 15.0757 12.3148C15.0757 14.8052 13.0871 16.824 10.634 16.824Z" fill="#263238"/>
<path opacity="0.4" d="M10.6341 15.0793C9.13017 15.0793 7.91101 13.8416 7.91101 12.3148C7.91101 10.788 9.13017 9.55029 10.6341 9.55029C12.138 9.55029 13.3572 10.788 13.3572 12.3148C13.3572 13.8416 12.138 15.0793 10.6341 15.0793Z" fill="#12181C"/>
<g opacity="0.3">
<path d="M10.6353 9.82775H10.6339C10.5139 9.82775 10.4164 9.9269 10.4164 10.0491V11.4652C10.4164 11.5873 10.5139 11.6864 10.6338 11.6864H10.6353C10.7553 11.6864 10.8527 11.5872 10.8527 11.4652V10.0491C10.8527 9.9269 10.7553 9.82775 10.6353 9.82775Z" fill="#12181C"/>
</g>
<g opacity="0.3">
<path d="M10.6353 12.9426H10.6339C10.5139 12.9426 10.4164 13.0418 10.4164 13.1639V14.5801C10.4164 14.7022 10.5139 14.8013 10.6338 14.8013H10.6353C10.7553 14.8013 10.8527 14.7021 10.8527 14.5801V13.1639C10.8527 13.0418 10.7553 12.9426 10.6353 12.9426Z" fill="#12181C"/>
</g>
<g opacity="0.3">
<path d="M9.80349 12.0827C9.90736 12.1424 10.0392 12.1052 10.0979 11.9997C10.1583 11.8942 10.1231 11.7591 10.0193 11.6978L8.80992 10.9856L8.80934 10.9854C8.70519 10.9246 8.57231 10.9612 8.51252 11.0669L8.51223 11.0674C8.45245 11.1732 8.48837 11.3081 8.59252 11.3688L9.80042 12.0809L9.8034 12.0827H9.80349Z" fill="#12181C"/>
</g>
<g opacity="0.3">
<path d="M12.7565 13.5522L12.7567 13.5517C12.8165 13.4459 12.7806 13.3109 12.6764 13.2503L11.4685 12.5381C11.3643 12.4766 11.2306 12.5123 11.1697 12.6179C11.1093 12.7241 11.1451 12.8599 11.2497 12.9213L12.4576 13.6334C12.5622 13.6948 12.696 13.6584 12.7565 13.5522Z" fill="#12181C"/>
</g>
<g opacity="0.3">
<path d="M8.513 13.5585C8.57307 13.6641 8.70615 13.7001 8.81011 13.6391L10.0195 12.9269C10.1235 12.865 10.1586 12.7294 10.098 12.6236C10.0376 12.5181 9.90448 12.4824 9.80072 12.5438L8.59281 13.256L8.59223 13.2563C8.48827 13.3173 8.45273 13.4523 8.5128 13.5579L8.51318 13.5585H8.513Z" fill="#12181C"/>
</g>
<g opacity="0.3">
<path d="M11.171 12.0021C11.2317 12.1072 11.3649 12.1426 11.4685 12.081L12.6764 11.3689L12.677 11.3686C12.781 11.3075 12.8165 11.1725 12.7564 11.0669C12.696 10.9608 12.5622 10.9245 12.4576 10.9857L11.2497 11.6979L11.2491 11.6982C11.1452 11.7592 11.1096 11.8942 11.1697 11.9998L11.1709 12.0021H11.171Z" fill="#12181C"/>
</g>
<path d="M10.6338 11.9428C10.4315 11.9428 10.2676 12.1092 10.2676 12.3145C10.2676 12.5198 10.4315 12.6862 10.6338 12.6862C10.8361 12.6862 11 12.5198 11 12.3145C11 12.1092 10.8361 11.9428 10.6338 11.9428Z" fill="#263238"/>
<path d="M50.0552 14.2094L49.4939 9.09757L46.1887 6.74973H42.5662L38.3309 9.57849L38.1438 14.2094V15.0978H50.0552V14.2094Z" fill="#71C4F4"/>
<path opacity="0.5" d="M50.0552 14.2094L49.4939 9.09757L46.1887 6.74973H42.5662L38.3309 9.57849L38.1438 14.2094V15.0978H50.0552V14.2094Z" fill="black"/>
<path d="M39.4399 5.85447C39.4399 5.85447 35.9551 3.6631 32.7545 2.75001C29.5539 1.83692 27.0402 1.08488 27.0402 1.08488L35.5812 6.21977L39.4398 5.85457L39.4399 5.85447Z" fill="#263238"/>
<path d="M2.42288 5.77104L1.59314 4.92677L1.62629 4.52151H5.14434C5.14434 4.52151 14.6364 0.536713 22.5021 0.536713C30.3678 0.536713 36.541 5.66974 36.541 5.66974L39.0634 5.53462C39.0634 5.53462 42.6354 5.58074 44.5064 5.8386C47.6925 6.27759 53.2351 7.7297 54.8945 10.0261C54.8945 10.0261 53.9652 13.9771 51.7748 15.4968H48.824V12.1668H48.8191C48.7657 9.61116 46.717 7.5552 44.1926 7.5552C41.6681 7.5552 39.6195 9.61116 39.5661 12.1668H39.5611V15.4968H15.2245V12.1668H15.2195C15.1661 9.61116 13.1175 7.5552 10.5931 7.5552C8.06872 7.5552 6.01996 9.61116 5.96659 12.1668H5.96161V14.7375C4.40485 14.5185 3.02037 14.2455 2.19063 13.9097C2.19063 13.9097 0.365211 11.816 0.265663 10.7353L2.42297 5.77113L2.42288 5.77104Z" fill="#71C4F4"/>
<path opacity="0.3" d="M26.7219 7.55703C29.2032 7.68153 33.2833 6.97502 36.6355 6.34016C39.2373 6.45384 41.9205 6.64346 44.1962 6.93544C49.3805 7.60061 52.6675 10.446 52.6675 10.446L54.8939 10.0287C54.8847 10.0674 54.4513 11.8823 53.4913 13.5158C52.591 13.5553 50.9241 13.6243 48.824 13.6925V12.1666H48.819C48.7657 9.61104 46.717 7.55508 44.1925 7.55508C41.6681 7.55508 39.6194 9.61104 39.566 12.1666H39.5611V13.8837C35.0431 13.9139 30.4966 13.8305 27.5837 13.4823C19.9176 12.5659 17.3117 12.019 14.3439 6.62123C14.3439 6.62123 22.3063 7.33534 26.7218 7.55694L26.7219 7.55703Z" fill="black"/>
<path d="M33.9162 13.1686C35.7385 13.1686 36.9943 13.1258 37.0149 13.1251L37.0265 13.1247V8.77614L37.0234 8.77273L34.471 5.85934L34.4659 5.85905L17.4339 5.02551L17.4362 5.04023C17.4377 5.05028 17.5914 6.04964 17.7459 6.8356C17.9008 7.62361 20.1465 11.3724 20.1692 11.4102L20.1727 11.414C20.9136 11.9136 22.2605 12.3142 24.1757 12.6051C25.7069 12.8376 27.6033 13.0009 29.8121 13.0903C31.2968 13.1504 32.7271 13.1687 33.916 13.1687L33.9162 13.1686ZM37.0025 13.1011C36.7806 13.1085 33.4626 13.2136 29.8131 13.066C26.3458 12.9256 21.8624 12.5217 20.1882 11.3952C20.1213 11.2834 17.922 7.60665 17.7695 6.83093C17.6253 6.09771 17.4818 5.17847 17.4622 5.05125L34.4598 5.88313L37.0025 8.7855V13.1012V13.1011Z" fill="#263238"/>
<path d="M54.6414 10.9003C54.6414 10.9003 53.7037 10.4229 52.9198 11.8321C52.1359 13.2412 52.2122 13.5695 52.2122 13.5695L53.4917 13.5158C53.9201 12.7876 54.2985 11.9005 54.6414 10.9003Z" fill="#263238"/>
<path d="M2.37967 5.87125H4.67773C4.67773 5.87125 4.33309 6.96635 3.52865 7.39374C2.72431 7.82124 1.66491 7.5158 1.62659 7.60403C1.58826 7.69226 2.37967 5.87125 2.37967 5.87125Z" fill="#D7504D"/>
<path opacity="0.3" d="M44.1928 6.93358C39.0084 6.26841 31.7085 6.13417 28.0766 6.21977C24.4448 6.30536 1.62664 4.52159 1.62664 4.52159H5.14469L12.5771 4.62863L36.5414 5.66983L39.0637 5.5347C39.0637 5.5347 42.6358 5.58082 44.5067 5.83868C47.6929 6.27768 53.2354 7.72979 54.8949 10.0262L52.6643 10.4443C52.6643 10.4443 49.3773 7.59886 44.1929 6.93368L44.1928 6.93358Z" fill="#12181C"/>
<path opacity="0.3" d="M0.297486 10.9125C2.25771 11.9034 5.96191 12.4438 5.96191 12.4438V14.7373C4.40515 14.5183 3.02067 14.2453 2.19093 13.9095C2.19093 13.9095 0.552634 12.0289 0.297486 10.9125Z" fill="black"/>
<path d="M53.8752 9.84503C53.8752 9.84503 52.9602 10.0632 52.7886 10.005C52.617 9.94681 51.6878 9.17586 51.6878 9.17586C51.6878 9.17586 53.0174 8.914 53.8752 9.84503Z" fill="#12181C"/>
<path d="M44.1 16.891C41.6469 16.891 39.6583 14.8722 39.6583 12.3818C39.6583 9.89145 41.6469 7.87261 44.1 7.87261C46.553 7.87261 48.5416 9.89145 48.5416 12.3818C48.5416 14.8722 46.553 16.891 44.1 16.891Z" fill="#263238"/>
<path opacity="0.4" d="M44.0999 15.1463C42.596 15.1463 41.3768 13.9086 41.3768 12.3818C41.3768 10.855 42.596 9.61728 44.0999 9.61728C45.6038 9.61728 46.823 10.855 46.823 12.3818C46.823 13.9086 45.6038 15.1463 44.0999 15.1463Z" fill="#12181C"/>
<g opacity="0.3">
<path d="M44.0993 9.89474H44.1018C44.2216 9.89474 44.3187 9.99356 44.3187 10.1155V11.5327C44.3187 11.6546 44.2216 11.7534 44.1018 11.7534H44.0993C43.9795 11.7534 43.8824 11.6546 43.8824 11.5327V10.1155C43.8824 9.99356 43.9795 9.89474 44.0993 9.89474Z" fill="#12181C"/>
</g>
<g opacity="0.3">
<path d="M44.0993 13.0096H44.1018C44.2216 13.0096 44.3187 13.1084 44.3187 13.2303V14.6476C44.3187 14.7695 44.2216 14.8683 44.1018 14.8683H44.0993C43.9795 14.8683 43.8824 14.7695 43.8824 14.6476V13.2303C43.8824 13.1084 43.9795 13.0096 44.0993 13.0096Z" fill="#12181C"/>
</g>
<g opacity="0.3">
<path d="M43.2696 12.1497C43.3734 12.2093 43.5053 12.1722 43.564 12.0667C43.6244 11.9612 43.5892 11.8261 43.4853 11.7648L42.276 11.0526L42.2754 11.0523C42.1713 10.9916 42.0384 11.0281 41.9786 11.1338L41.9783 11.1344C41.9185 11.2401 41.9544 11.3751 42.0586 11.4358L43.2665 12.1479L43.2695 12.1497H43.2696Z" fill="#12181C"/>
</g>
<g opacity="0.3">
<path d="M46.2224 13.6191L46.2227 13.6186C46.2825 13.5128 46.2465 13.3778 46.1424 13.3172L44.9345 12.605C44.8302 12.5435 44.6966 12.5792 44.6356 12.6848C44.5753 12.7911 44.611 12.9268 44.7156 12.9882L45.9236 13.7003C46.0282 13.7617 46.1619 13.7253 46.2224 13.6191Z" fill="#12181C"/>
</g>
<g opacity="0.3">
<path d="M41.9789 13.6255C42.039 13.7311 42.1721 13.7671 42.276 13.7061L43.4854 12.9939C43.5894 12.932 43.6246 12.7964 43.5639 12.6905C43.5035 12.5851 43.3704 12.5494 43.2666 12.6108L42.0587 13.323L42.0581 13.3233C41.9542 13.3843 41.9186 13.5193 41.9787 13.6249L41.9789 13.6255Z" fill="#12181C"/>
</g>
<g opacity="0.3">
<path d="M44.637 12.069C44.6976 12.1742 44.8309 12.2095 44.9345 12.1479L46.1424 11.4358L46.1429 11.4355C46.2469 11.3744 46.2824 11.2394 46.2224 11.1338C46.1619 11.0277 46.0282 10.9914 45.9235 11.0526L44.7156 11.7648L44.7151 11.7651C44.6111 11.8261 44.5756 11.9611 44.6356 12.0667L44.637 12.069Z" fill="#12181C"/>
</g>
<path d="M44.0999 12.0098C43.8976 12.0098 43.7337 12.1762 43.7337 12.3815C43.7337 12.5868 43.8976 12.7532 44.0999 12.7532C44.3021 12.7532 44.4661 12.5868 44.4661 12.3815C44.4661 12.1762 44.3021 12.0098 44.0999 12.0098Z" fill="#263238"/>
<path opacity="0.5" d="M39.5614 15.4968V14.9999C39.5614 14.9999 20.5497 15.2943 15.2248 14.4109V15.4967H39.5614V15.4968Z" fill="black"/>
<path opacity="0.5" d="M51.7751 15.4968H48.8244V15.1462L52.2654 15.0978C52.1829 15.1865 51.9142 15.4104 51.7752 15.4968H51.7751Z" fill="black"/>
<path d="M34.4655 5.87125C34.4655 5.87125 15.4892 5.10654 12.577 4.62864L12.1543 3.75709C12.1543 3.75709 16.4554 1.25872 22.7227 1.4265C28.99 1.59428 34.4654 5.87125 34.4654 5.87125H34.4655Z" fill="#263238"/>
<path opacity="0.3" d="M17.4833 1.89494L17.9655 5.08958L16.7564 4.97883L16.5061 2.11926L17.4833 1.89494Z" fill="black"/>
<path d="M16.978 2.01921L17.4604 5.03633L17.4369 5.04023L16.9545 2.02311L16.978 2.01921Z" fill="#263238"/>
<path opacity="0.3" d="M32.0768 4.32066L31.8897 5.73552L34.4655 5.87123L32.0768 4.32066Z" fill="black"/>
<path d="M32.5113 4.80531C32.5113 4.80531 34.0088 5.06181 33.8745 6.09988C33.7403 7.13795 31.7409 6.63637 31.7002 6.57466C31.7002 6.57466 31.7988 5.19605 32.5113 4.80531Z" fill="#71C4F4"/>
<path d="M32.5115 4.8053C33.0381 4.92648 33.6728 5.17244 33.8456 5.74588C34.0159 6.47403 33.4355 6.73959 32.8193 6.73764C32.4522 6.74232 32.0409 6.68636 31.7089 6.57522C31.7867 5.93667 31.9357 5.17069 32.5115 4.8052V4.8053ZM32.5115 4.8053C31.9255 5.16464 31.771 5.9354 31.6913 6.57805C31.7365 6.61207 31.7812 6.61588 31.831 6.63294C32.1532 6.71873 32.4865 6.76328 32.8198 6.76075C33.4474 6.76728 34.0402 6.47949 33.862 5.74139C33.6853 5.16133 33.0456 4.91751 32.5116 4.8053H32.5115Z" fill="#263238"/>
<path opacity="0.2" d="M31.7003 4.32066L12.6445 3.77111C12.6445 3.77111 17.9864 1.39763 22.7788 1.6783C27.5714 1.95897 31.7003 4.32066 31.7003 4.32066Z" fill="#12181C"/>
</g>
<defs>
<clipPath id="clip0_562_34385">
<rect width="55" height="17.1875" fill="white" transform="matrix(-1 0 0 1 55 0.40625)"/>
</clipPath>
</defs>
</svg>
