<svg width="55" height="23" viewBox="0 0 55 23" fill="none" xmlns="http://www.w3.org/2000/svg">
<path d="M20.3023 22.5874C20.3023 22.5874 22.1497 22.5874 22.921 22.5708C23.8435 22.551 24.7777 22.205 25.478 21.1294C26.7438 19.1853 26.7438 16.0335 25.478 14.0894C24.8452 13.1174 23.6264 12.6314 22.797 12.6314H20.3267C19.0609 14.5755 19.0366 20.6433 20.3023 22.5874Z" fill="black"/>
<path d="M20.3268 22.5878C22.1168 22.5878 23.5679 20.3591 23.5679 17.6098C23.5679 14.8606 22.1168 12.6319 20.3268 12.6319C18.5367 12.6319 17.0856 14.8606 17.0856 17.6098C17.0856 20.3591 18.5367 22.5878 20.3268 22.5878Z" fill="#263238"/>
<g opacity="0.3">
<path d="M20.168 15.1075V16.672C20.168 16.8065 20.239 16.9157 20.3267 16.9157H20.3277C20.4154 16.9157 20.4864 16.8065 20.4864 16.672V15.1075C20.4864 14.9729 20.4154 14.8638 20.3277 14.8638H20.3267C20.239 14.8638 20.168 14.9729 20.168 15.1075Z" fill="#12181C"/>
</g>
<g opacity="0.3">
<path d="M20.168 18.5462V20.1106C20.168 20.2452 20.239 20.3544 20.3267 20.3544H20.3277C20.4154 20.3544 20.4864 20.2452 20.4864 20.1106V18.5462C20.4864 18.4116 20.4154 18.3024 20.3277 18.3024H20.3267C20.239 18.3024 20.168 18.4116 20.168 18.5462Z" fill="#12181C"/>
</g>
<g opacity="0.3">
<path d="M19.7208 17.3531C19.7965 17.4189 19.8927 17.378 19.9356 17.2615C19.9796 17.145 19.9539 16.9959 19.8782 16.9281L18.9957 16.142L18.9953 16.1416C18.9193 16.0746 18.8223 16.1149 18.7787 16.2316L18.7784 16.2323C18.7348 16.349 18.761 16.4979 18.837 16.565L19.7184 17.3511L19.7207 17.3531H19.7208Z" fill="#12181C"/>
</g>
<g opacity="0.3">
<path d="M21.8757 18.9755L21.876 18.9748C21.9196 18.8581 21.8934 18.7092 21.8174 18.6421L20.936 17.856C20.86 17.7881 20.7625 17.8274 20.7179 17.944C20.6739 18.0613 20.7 18.2111 20.7763 18.279L21.6577 19.0651C21.7339 19.1327 21.8316 19.0926 21.8757 18.9755Z" fill="#12181C"/>
</g>
<g opacity="0.3">
<path d="M18.7788 18.9824C18.8227 19.0989 18.9197 19.1388 18.9956 19.0714L19.878 18.2853C19.9539 18.217 19.9796 18.0672 19.9354 17.9503C19.8913 17.8338 19.7942 17.7945 19.7184 17.8622L18.837 18.6484L18.8366 18.6488C18.7607 18.7161 18.7348 18.8653 18.7787 18.9818L18.7788 18.9824Z" fill="#12181C"/>
</g>
<g opacity="0.3">
<path d="M20.7188 17.2642C20.7631 17.3803 20.8603 17.4193 20.936 17.3513L21.8174 16.5652L21.8178 16.5648C21.8936 16.4974 21.9196 16.3483 21.8757 16.2318C21.8315 16.1146 21.734 16.0745 21.6576 16.1421L20.7762 16.9283L20.7758 16.9287C20.6999 16.996 20.674 17.1452 20.7179 17.2617L20.7188 17.2642Z" fill="#12181C"/>
</g>
<path d="M20.3267 17.1988C20.1791 17.1988 20.0594 17.3825 20.0594 17.6092C20.0594 17.8359 20.1791 18.0195 20.3267 18.0195C20.4742 18.0195 20.5939 17.8358 20.5939 17.6091C20.5939 17.3824 20.4742 17.1988 20.3267 17.1988Z" fill="#263238"/>
<path opacity="0.3" d="M20.3268 22.5878C22.1168 22.5878 23.5679 20.3591 23.5679 17.6098C23.5679 14.8606 22.1168 12.6319 20.3268 12.6319C18.5367 12.6319 17.0856 14.8606 17.0856 17.6098C17.0856 20.3591 18.5367 22.5878 20.3268 22.5878Z" fill="black"/>
<path d="M30.1912 19.7661C30.1912 19.7661 30.8876 12.0553 26.0758 12.0553C26.0758 12.0553 23.4429 12.0856 23.0192 15.6869C22.5956 19.2882 22.8679 19.7661 22.8679 19.7661H30.1912Z" fill="#71C4F4"/>
<path opacity="0.3" d="M30.1912 19.7661C30.1912 19.7661 30.8876 12.0553 26.0758 12.0553C26.0758 12.0553 23.4429 12.0856 23.0192 15.6869C22.5956 19.2882 22.8679 19.7661 22.8679 19.7661H30.1912Z" fill="black"/>
<path d="M8.1766 20.0733C8.1766 20.0733 8.94152 11.8497 3.91063 10.8694C3.91063 10.8694 1.07307 10.9042 0.616499 15.0381C0.159931 19.1719 2.1466 19.8848 2.1466 19.8848L8.1766 20.0733Z" fill="#71C4F4"/>
<path opacity="0.3" d="M8.1766 20.0733C8.1766 20.0733 8.94152 11.8497 3.91063 10.8694C3.91063 10.8694 1.07307 10.9042 0.616499 15.0381C0.159931 19.1719 2.1466 19.8848 2.1466 19.8848L8.1766 20.0733Z" fill="black"/>
<path d="M3.77223 22.3624C3.77223 22.3624 5.48725 22.3624 6.20342 22.3458C7.05981 22.326 7.92721 21.98 8.57733 20.9044C9.75243 18.9603 9.75243 15.8085 8.57733 13.8644C7.98985 12.8924 6.85839 12.4064 6.08836 12.4064H3.79477C2.61968 14.3505 2.59714 20.4183 3.77223 22.3624Z" fill="black"/>
<path d="M3.79487 22.3624C5.45675 22.3624 6.80397 20.1336 6.80397 17.3843C6.80397 14.635 5.45675 12.4062 3.79487 12.4062C2.13299 12.4062 0.785767 14.635 0.785767 17.3843C0.785767 20.1336 2.13299 22.3624 3.79487 22.3624Z" fill="#263238"/>
<g opacity="0.3">
<path d="M3.64758 14.8825V16.4469C3.64758 16.5815 3.7135 16.6907 3.79488 16.6907H3.7958C3.87718 16.6907 3.94309 16.5815 3.94309 16.4469V14.8825C3.94309 14.7479 3.87718 14.6387 3.7958 14.6387H3.79488C3.7135 14.6387 3.64758 14.7478 3.64758 14.8825Z" fill="#12181C"/>
</g>
<g opacity="0.3">
<path d="M3.64758 18.3212V19.8856C3.64758 20.0202 3.7135 20.1293 3.79488 20.1293H3.7958C3.87718 20.1293 3.94309 20.0203 3.94309 19.8856V18.3212C3.94309 18.1866 3.87718 18.0774 3.7958 18.0774H3.79488C3.7135 18.0774 3.64758 18.1866 3.64758 18.3212Z" fill="#12181C"/>
</g>
<g opacity="0.3">
<path d="M3.23246 17.1281C3.30283 17.1939 3.39208 17.153 3.43192 17.0365C3.4728 16.92 3.44895 16.7709 3.37858 16.7031L2.55927 15.917L2.55888 15.9166C2.48838 15.8495 2.39822 15.8898 2.35772 16.0066L2.35746 16.0073C2.31697 16.124 2.34134 16.2729 2.41185 16.34L3.23023 17.1261L3.2322 17.1281H3.23246Z" fill="#12181C"/>
</g>
<g opacity="0.3">
<path d="M5.23291 18.7505L5.23317 18.7498C5.27366 18.6331 5.24929 18.4842 5.17879 18.4171L4.3604 17.631C4.28976 17.5631 4.19921 17.6024 4.15793 17.719C4.11704 17.8363 4.14129 17.9861 4.21205 18.054L5.03031 18.8401C5.10121 18.9078 5.19176 18.8677 5.23278 18.7505H5.23291Z" fill="#12181C"/>
</g>
<g opacity="0.3">
<path d="M2.358 18.7573C2.39875 18.8738 2.48878 18.9136 2.55929 18.8463L3.37859 18.0601C3.44909 17.9919 3.47281 17.8421 3.4318 17.7252C3.39091 17.6087 3.30062 17.5694 3.23038 17.6371L2.41199 18.4233L2.41159 18.4237C2.34109 18.491 2.31711 18.6401 2.35787 18.7566L2.358 18.7573Z" fill="#12181C"/>
</g>
<g opacity="0.3">
<path d="M4.15894 17.0391C4.20009 17.1552 4.29025 17.1943 4.3605 17.1263L5.17888 16.3401L5.17928 16.3397C5.24978 16.2724 5.27376 16.1233 5.23301 16.0068C5.19199 15.8896 5.10143 15.8495 5.03054 15.9171L4.21228 16.7033L4.21189 16.7037C4.14138 16.771 4.1174 16.9201 4.15816 17.0366L4.15894 17.0391Z" fill="#12181C"/>
</g>
<path d="M3.79495 16.9736C3.658 16.9736 3.54688 17.1573 3.54688 17.3841C3.54688 17.6108 3.658 17.7944 3.79495 17.7944C3.93189 17.7944 4.04302 17.6106 4.04302 17.3841C4.04302 17.1575 3.93189 16.9736 3.79495 16.9736Z" fill="#263238"/>
<path d="M26.2314 22.5874C26.2314 22.5874 28.0787 22.5874 28.8501 22.5708C29.7725 22.551 30.7067 22.205 31.4071 21.1294C32.6728 19.1853 32.6728 16.0335 31.4071 14.0894C30.7742 13.1174 29.5555 12.6314 28.7261 12.6314H26.2557C24.99 14.5755 24.9656 20.6433 26.2314 22.5874Z" fill="black"/>
<path d="M26.2557 22.5878C28.0458 22.5878 29.4969 20.3591 29.4969 17.6098C29.4969 14.8606 28.0458 12.6319 26.2557 12.6319C24.4657 12.6319 23.0145 14.8606 23.0145 17.6098C23.0145 20.3591 24.4657 22.5878 26.2557 22.5878Z" fill="#263238"/>
<g opacity="0.3">
<path d="M26.097 15.1075V16.672C26.097 16.8065 26.1681 16.9157 26.2557 16.9157H26.2568C26.3445 16.9157 26.4155 16.8065 26.4155 16.672V15.1075C26.4155 14.9729 26.3445 14.8638 26.2568 14.8638H26.2557C26.1681 14.8638 26.097 14.9729 26.097 15.1075Z" fill="#12181C"/>
</g>
<g opacity="0.3">
<path d="M26.097 18.5462V20.1106C26.097 20.2452 26.1681 20.3544 26.2557 20.3544H26.2568C26.3445 20.3544 26.4155 20.2452 26.4155 20.1106V18.5462C26.4155 18.4116 26.3445 18.3024 26.2568 18.3024H26.2557C26.1681 18.3024 26.097 18.4116 26.097 18.5462Z" fill="#12181C"/>
</g>
<g opacity="0.3">
<path d="M25.6497 17.3531C25.7255 17.4189 25.8217 17.378 25.8645 17.2615C25.9086 17.145 25.8829 16.9959 25.8071 16.9281L24.9247 16.142L24.9243 16.1416C24.8483 16.0746 24.7513 16.1149 24.7076 16.2316L24.7074 16.2323C24.6637 16.349 24.69 16.4979 24.766 16.565L25.6474 17.3511L25.6496 17.3531H25.6497Z" fill="#12181C"/>
</g>
<g opacity="0.3">
<path d="M27.8046 18.9755L27.8048 18.9748C27.8485 18.8581 27.8223 18.7092 27.7463 18.6421L26.8648 17.856C26.7888 17.7881 26.6913 17.8274 26.6468 17.944C26.6027 18.0613 26.6288 18.2111 26.7051 18.279L27.5865 19.0651C27.6628 19.1327 27.7604 19.0926 27.8046 18.9755Z" fill="#12181C"/>
</g>
<g opacity="0.3">
<path d="M24.708 18.9824C24.7519 19.0989 24.8489 19.1388 24.9248 19.0714L25.8072 18.2853C25.8831 18.217 25.9088 18.0672 25.8645 17.9503C25.8203 17.8338 25.7232 17.7945 25.6475 17.8622L24.7661 18.6484L24.7657 18.6488C24.6898 18.7161 24.6639 18.8653 24.7078 18.9818L24.708 18.9824Z" fill="#12181C"/>
</g>
<g opacity="0.3">
<path d="M26.6476 17.2642C26.6919 17.3803 26.7892 17.4193 26.8648 17.3513L27.7462 16.5652L27.7466 16.5648C27.8225 16.4974 27.8484 16.3483 27.8045 16.2318C27.7604 16.1146 27.6627 16.0745 27.5865 16.1421L26.705 16.9283L26.7046 16.9287C26.6288 16.996 26.6028 17.1452 26.6467 17.2617L26.6476 17.2642Z" fill="#12181C"/>
</g>
<path d="M26.2555 17.1988C26.1079 17.1988 25.9883 17.3825 25.9883 17.6092C25.9883 17.8359 26.1079 18.0195 26.2555 18.0195C26.403 18.0195 26.5227 17.8358 26.5227 17.6091C26.5227 17.3824 26.403 17.1988 26.2555 17.1988Z" fill="#263238"/>
<path d="M46.5113 22.5874C46.5113 22.5874 48.3586 22.5874 49.13 22.5708C50.0524 22.551 50.9867 22.205 51.687 21.1294C52.9528 19.1853 52.9528 16.0335 51.687 14.0894C51.0541 13.1174 49.8354 12.6314 49.006 12.6314H46.5356C45.2699 14.5755 45.2455 20.6433 46.5113 22.5874Z" fill="black"/>
<path d="M46.5357 22.5875C48.3258 22.5875 49.7769 20.3588 49.7769 17.6095C49.7769 14.8601 48.3258 12.6314 46.5357 12.6314C44.7457 12.6314 43.2946 14.8601 43.2946 17.6095C43.2946 20.3588 44.7457 22.5875 46.5357 22.5875Z" fill="#263238"/>
<path opacity="0.3" d="M46.5357 22.5875C48.3258 22.5875 49.7769 20.3588 49.7769 17.6095C49.7769 14.8601 48.3258 12.6314 46.5357 12.6314C44.7457 12.6314 43.2946 14.8601 43.2946 17.6095C43.2946 20.3588 44.7457 22.5875 46.5357 22.5875Z" fill="black"/>
<g opacity="0.3">
<path d="M46.377 15.1075V16.672C46.377 16.8065 46.448 16.9157 46.5357 16.9157H46.5367C46.6244 16.9157 46.6954 16.8065 46.6954 16.672V15.1075C46.6954 14.9729 46.6244 14.8638 46.5367 14.8638H46.5357C46.448 14.8638 46.377 14.9729 46.377 15.1075Z" fill="#12181C"/>
</g>
<g opacity="0.3">
<path d="M46.377 18.5462V20.1106C46.377 20.2452 46.448 20.3544 46.5357 20.3544H46.5367C46.6244 20.3544 46.6954 20.2452 46.6954 20.1106V18.5462C46.6954 18.4116 46.6244 18.3024 46.5367 18.3024H46.5357C46.448 18.3024 46.377 18.4116 46.377 18.5462Z" fill="#12181C"/>
</g>
<g opacity="0.3">
<path d="M45.9298 17.3531C46.0055 17.4189 46.1017 17.378 46.1446 17.2615C46.1886 17.145 46.1629 16.9959 46.0872 16.9281L45.2047 16.142L45.2043 16.1416C45.1283 16.0746 45.0313 16.1149 44.9877 16.2316L44.9874 16.2323C44.9438 16.349 44.97 16.4979 45.046 16.565L45.9274 17.3511L45.9298 17.3531Z" fill="#12181C"/>
</g>
<g opacity="0.3">
<path d="M48.0845 18.9755L48.0847 18.9748C48.1284 18.8581 48.1022 18.7092 48.0262 18.6421L47.1447 17.856C47.0687 17.7881 46.9712 17.8274 46.9267 17.944C46.8826 18.0613 46.9087 18.2111 46.985 18.279L47.8664 19.0651C47.9428 19.1327 48.0403 19.0926 48.0845 18.9755Z" fill="#12181C"/>
</g>
<g opacity="0.3">
<path d="M44.9879 18.9824C45.0318 19.0989 45.1288 19.1388 45.2047 19.0714L46.0871 18.2853C46.163 18.217 46.1887 18.0672 46.1444 17.9503C46.1003 17.8338 46.0031 17.7945 45.9274 17.8622L45.046 18.6484L45.0456 18.6488C44.9697 18.7161 44.9438 18.8653 44.9877 18.9818L44.9879 18.9824Z" fill="#12181C"/>
</g>
<g opacity="0.3">
<path d="M46.9277 17.2642C46.972 17.3803 47.0692 17.4193 47.1448 17.3513L48.0262 16.5652L48.0266 16.5648C48.1025 16.4974 48.1285 16.3483 48.0846 16.2318C48.0404 16.1146 47.9429 16.0745 47.8665 16.1421L46.9851 16.9283L46.9847 16.9287C46.9088 16.996 46.8829 17.1452 46.9268 17.2617L46.9277 17.2642Z" fill="#12181C"/>
</g>
<path d="M46.5356 17.1988C46.3881 17.1988 46.2684 17.3825 46.2684 17.6092C46.2684 17.8359 46.3881 18.0195 46.5356 18.0195C46.6832 18.0195 46.8028 17.8358 46.8028 17.6091C46.8028 17.3824 46.6832 17.1988 46.5356 17.1988Z" fill="#263238"/>
<path d="M0.14712 11.1441C0.425202 9.66093 0.888715 7.25072 1.12054 6.97264C1.35236 6.69456 2.55734 6.60191 2.55734 6.60191C3.80883 5.2115 7.79489 2.84767 9.83424 1.82786C11.8736 0.808187 13.4496 0.576496 21.1899 0.112983C28.9303 -0.35053 33.5188 0.761927 33.5188 0.761927C37.4584 1.17905 43.9937 6.78734 43.9937 6.78734C47.6933 7.47992 50.2046 9.38298 50.2046 9.38298C50.2046 9.38298 52.1975 9.66107 53.0782 10.6344C53.9588 11.6076 54.0515 12.7201 54.0515 12.7201C54.0515 12.7201 54.5612 12.7201 54.8395 13.1372C55.1175 13.5543 54.9785 16.4281 54.8395 17.8649C54.7004 19.3017 53.5881 19.9506 53.5881 19.9506L31.0847 19.813H31.0791C30.6024 19.8101 30.2219 19.4196 30.2257 18.943C30.2422 16.9295 29.885 12.0967 26.0757 12.0967C26.0757 12.0967 23.4428 12.127 23.0191 15.7283C22.6559 18.8161 22.8042 19.6071 22.8539 19.7702L7.23847 19.9507L7.14595 19.9308C7.19981 18.9516 7.60396 14.3248 5.25245 12.6362C4.54859 12.1308 3.33379 12.0721 2.60097 12.5347C1.85977 13.0026 1.00037 13.9633 0.803272 15.9263C0.708263 16.6777 0.707738 17.3561 0.7367 18.2836L0.146857 17.9578C0.0542072 17.4016 -0.131224 12.6276 0.146857 11.1444L0.14712 11.1441Z" fill="#71C4F4"/>
<path d="M51.8911 12.2378C52.006 12.391 53.1245 13.9641 53.1245 13.9641C53.4127 14.1175 52.1974 15.0075 52.1974 14.8639H42.6256L40.0369 13.9795C40.1251 13.7638 41.1272 12.3528 41.9699 12.2378C42.8127 12.1229 51.8911 12.2378 51.8911 12.2378Z" fill="#263238"/>
<path d="M12.8365 18.7578C12.828 18.7578 12.8208 18.7513 12.8201 18.7426C12.818 18.7143 12.6105 15.8933 12.5668 14.3159C12.5587 14.0188 12.5271 13.3652 12.4907 12.6086C12.4132 11.0009 12.3071 8.79918 12.3375 8.21379C12.382 7.35609 13.3058 6.71736 13.3151 6.71094C13.3226 6.70583 13.3328 6.70793 13.3379 6.71527C13.343 6.72274 13.341 6.73296 13.3336 6.73807C13.3244 6.74436 12.4139 7.37417 12.3702 8.21549C12.34 8.79904 12.446 11 12.5233 12.607C12.5597 13.3638 12.5913 14.0176 12.5996 14.3148C12.6432 15.8916 12.8507 18.712 12.8528 18.7404C12.8534 18.7493 12.8467 18.7572 12.8377 18.758H12.8365V18.7578Z" fill="#263238"/>
<path d="M22.0135 19.1309H22.0128L7.76421 18.5518C7.75608 18.5514 7.74953 18.5452 7.74861 18.5374L7.50002 16.3767C6.85723 13.3549 5.63312 12.3801 4.9754 11.8565C4.7762 11.6979 4.63218 11.5832 4.58697 11.4677C4.40416 11.0009 4.16788 7.3005 4.21768 6.80292C4.25228 6.45748 5.22792 5.72886 5.81082 5.29339C6.01027 5.14439 6.16779 5.02684 6.20881 4.98242C6.21484 4.97586 6.22532 4.97534 6.232 4.9815C6.23869 4.98765 6.23908 4.99801 6.23292 5.00469C6.18994 5.05121 6.0391 5.16391 5.83048 5.3196C5.2519 5.75179 4.28347 6.47491 4.25031 6.80619C4.20248 7.28386 4.44334 11.0112 4.61737 11.4556C4.65944 11.5631 4.80045 11.6755 4.99571 11.8308C5.65658 12.3571 6.88672 13.3365 7.53212 16.3712L7.77941 18.5197L22.0018 19.0976C22.0225 18.9727 22.0022 17.7668 21.9789 16.3769C21.9305 13.4984 21.8642 9.55622 22.0167 8.85328C22.318 7.46418 23.5685 7.04234 23.5811 7.03815C23.5897 7.03553 23.5989 7.04011 23.6016 7.04863C23.6044 7.05728 23.5998 7.06658 23.5911 7.06934C23.5787 7.07327 22.3461 7.48987 22.0487 8.86009C21.8971 9.55936 21.966 13.6618 22.0116 16.3762C22.0511 18.7235 22.0525 19.1093 22.022 19.1283C22.0194 19.1299 22.0165 19.1308 22.0133 19.1308L22.0135 19.1309Z" fill="#263238"/>
<path d="M42.6255 6.65366H25.5831C25.5831 6.65366 21.2465 2.58321 19.9911 1.28991C21.5619 1.05468 30.8091 0.884188 33.6478 1.28991C33.6478 1.28991 38.5169 2.16491 42.6254 6.65366H42.6255Z" fill="#263238"/>
<path d="M23.6363 6.65366C23.6363 6.65366 19.1168 2.06754 18.1863 1.66877C17.2559 1.26999 14.1321 1.5026 12.8692 1.66877C11.6065 1.83493 7.01838 3.83065 6.22083 4.99369C6.22083 4.99369 6.95403 6.0553 8.25009 6.38764C9.54614 6.71997 9.21381 6.48749 11.9388 6.65366C14.6638 6.81983 23.6363 7.08546 23.6363 7.08546V6.65366Z" fill="#263238"/>
<path d="M51.891 12.2541H51.8888C51.8799 12.2528 51.8736 12.2445 51.8748 12.2355C52.063 10.8061 50.2134 9.3687 50.1948 9.35441C50.1876 9.34891 50.1862 9.33855 50.1918 9.33135C50.1974 9.32401 50.2077 9.32296 50.2148 9.32833C50.2337 9.34275 52.098 10.7916 51.9074 12.2399C51.9062 12.2481 51.8992 12.2541 51.891 12.2541Z" fill="#263238"/>
<path opacity="0.7" d="M54.0517 12.6787C53.9424 12.8304 53.8561 13.6795 53.0592 13.6867L52.1973 12.6216C52.1973 12.6216 52.5871 10.9713 52.343 10.034C52.343 10.034 53.1184 10.5198 53.4021 11.0051C53.6857 11.4905 54.0517 12.6787 54.0517 12.6787Z" fill="#12181C"/>
<path opacity="0.3" d="M32.097 9.77193C32.097 9.77193 30.7552 8.4287 25.7806 7.40548L23.6362 7.08546C23.2603 7.11089 22.8742 7.39421 22.4822 7.83322C20.8766 8.14642 10.4865 7.29566 10.4865 7.29566C10.4865 7.29566 21.1293 8.12716 24.3297 8.33723C27.5302 8.54716 27.448 8.56132 32.0971 9.77193H32.097Z" fill="black"/>
<path d="M0.940539 7.42618C0.973301 7.40823 2.08602 7.5744 2.83377 7.76691C2.83377 7.76691 1.3629 9.41508 0.873705 9.49437L0.480957 9.42006C0.480957 9.42006 0.548446 7.64084 0.940539 7.42618Z" fill="#D7504D"/>
<path d="M32.6489 10.4618C32.6465 10.4618 32.6441 10.4613 32.6418 10.4602C32.6337 10.4563 32.6301 10.4466 32.6339 10.4383C32.6345 10.4374 32.6802 10.3369 32.6223 10.2019C32.5662 10.0711 32.4004 9.88244 31.9286 9.72505C31.6477 9.63148 31.0067 9.47108 30.2645 9.28552C28.5696 8.86158 26.2484 8.28078 26.0588 7.95592C25.7927 7.49961 25.5694 6.66602 25.5672 6.65776C25.5649 6.64911 25.5701 6.63994 25.5787 6.63771C25.5877 6.63535 25.5966 6.6406 25.5988 6.64938C25.601 6.65763 25.8232 7.48703 26.0872 7.93953C26.2699 8.25247 28.5833 8.83118 30.2725 9.2538C31.0154 9.43963 31.657 9.60016 31.939 9.69412C32.3279 9.82359 32.5681 9.99068 32.6529 10.1901C32.7161 10.3387 32.6659 10.4478 32.6637 10.4524C32.6609 10.4583 32.655 10.4617 32.6489 10.4617V10.4618Z" fill="#263238"/>
<path opacity="0.3" d="M21.5094 18.1064C21.5094 18.1064 8.53039 17.9244 8.36436 17.6755C8.19845 17.4267 9.31445 16.6738 9.31445 16.6738C9.48035 16.5593 21.4261 17.3816 21.5094 18.1064Z" fill="#12181C"/>
<path d="M52.5828 17.5599C52.5828 17.5599 53.5905 18.0316 53.5511 18.0333C53.5116 18.0351 53.3148 19.0592 53.3148 19.0592L37.8381 18.8454L36.3804 17.6094L41.0276 17.5458L52.5828 17.5599Z" fill="#263238"/>
<path d="M32.483 17.6091C32.5305 17.6888 33.9411 17.6091 33.9411 17.6091L35.3688 18.8143L33.2698 18.7653L32.483 17.6091Z" fill="#263238"/>
<path d="M41.9542 12.3393H41.9525L40.2628 12.1612C40.2538 12.1603 40.2472 12.1523 40.2483 12.1432C40.2492 12.1343 40.2576 12.1261 40.2662 12.1287L41.956 12.3066C41.965 12.3076 41.9715 12.3156 41.9705 12.3246C41.9696 12.333 41.9625 12.3393 41.9542 12.3393Z" fill="#263238"/>
<path opacity="0.7" d="M40.2648 12.0565C40.2648 12.0565 31.9506 10.1883 31.3082 10.2526C30.6658 10.317 28.8886 10.837 29.0174 11.3201C29.1462 11.8033 30.5048 12.5396 32.3086 12.8295C33.7454 13.0604 36.0773 13.3449 37.6234 13.4415C39.5103 13.5595 40.2646 12.0565 40.2646 12.0565H40.2648Z" fill="#12181C"/>
<path opacity="0.3" d="M39.8924 15.5525C39.8924 15.5525 36.7262 14.0075 35.5032 14.0075C34.2803 14.0075 28.8252 12.4064 28.8252 12.4064C28.8252 12.4064 32.9065 14.9909 33.8092 15.2055C34.7118 15.4203 39.8924 15.5524 39.8924 15.5524V15.5525Z" fill="black"/>
<path opacity="0.3" d="M41.6601 6.29329C41.6601 6.29329 37.0572 2.11499 33.2157 1.72539C29.3742 1.33579 26.9768 1.44849 26.9768 1.44849C26.9768 1.44849 28.1181 4.37424 30.2264 4.95321C32.3345 5.53217 41.6602 6.29329 41.6602 6.29329H41.6601Z" fill="#12181C"/>
<path opacity="0.3" d="M54.6803 13.4482C54.6803 13.4482 54.7893 14.2731 54.5893 14.6549C54.3894 15.0367 52.5348 15.5427 52.5348 15.5427L54.6803 13.4481V13.4482Z" fill="black"/>
<path opacity="0.7" d="M32.1666 11.8097C32.1666 12.3238 32.7253 12.7405 33.4145 12.7405C34.1036 12.7405 34.6623 12.3238 34.6623 11.8097C34.6623 11.2956 34.1036 10.879 33.4145 10.879C32.7253 10.879 32.1666 11.2957 32.1666 11.8097Z" fill="#12181C"/>
<path opacity="0.7" d="M33.0996 10.8072L31.3084 10.6303C31.3084 10.6303 30.7747 11.7475 31.8361 12.4019C31.8361 12.4019 30.5277 12.0163 30.9262 10.6303C30.9515 10.5082 31.0071 10.3822 31.3082 10.4454C31.4056 10.4658 33.0996 10.8072 33.0996 10.8072Z" fill="#12181C"/>
<path opacity="0.3" d="M42.9355 6.88666C42.9355 6.88666 49.8273 8.01459 51.0546 11.4153C51.0546 11.4153 33.338 7.0088 33.4147 6.88666C33.4913 6.76453 42.9356 6.88666 42.9356 6.88666H42.9355Z" fill="#12181C"/>
<path d="M23.6527 7.1024L23.6358 7.10187C23.5461 7.09912 14.6318 6.83428 11.9378 6.66994C10.8147 6.60154 10.2034 6.60075 9.79883 6.60023C9.20846 6.59944 9.00967 6.59931 8.24592 6.40353C6.95878 6.07342 6.2147 5.01364 6.20723 5.00289L6.20081 4.99359L6.20723 4.98442C7.00871 3.81561 11.5796 1.82186 12.867 1.65242C14.1429 1.48468 17.2553 1.25207 18.1927 1.6536C19.1154 2.04923 23.6027 6.5963 23.6477 6.64203L23.6525 6.64688V7.1024H23.6527ZM6.24091 4.99346C6.31678 5.09804 7.04304 6.0611 8.25431 6.37181C9.01386 6.56655 9.21174 6.56668 9.79909 6.56747C10.2039 6.56799 10.8159 6.56878 11.94 6.63718C14.5776 6.79824 23.1799 7.05548 23.6201 7.06859V6.66038C23.4508 6.48871 19.0836 2.07098 18.1801 1.68374C17.2491 1.28483 14.1449 1.51731 12.8716 1.68492C11.5914 1.85344 7.0568 3.82858 6.24091 4.99346Z" fill="black"/>
<path opacity="0.3" d="M15.1768 9.13513L13.5286 9.00484C13.3719 8.99245 13.2348 9.10944 13.2224 9.26616L13.2002 9.54742C13.1878 9.70413 13.3048 9.84121 13.4615 9.8536L15.1097 9.98389C15.2664 9.99628 15.4035 9.87928 15.4159 9.72257L15.4381 9.44131C15.4505 9.2846 15.3335 9.14752 15.1768 9.13513Z" fill="black"/>
<path opacity="0.3" d="M7.21949 8.28489L5.57135 8.1546C5.41464 8.14221 5.27755 8.25921 5.26517 8.41592L5.24293 8.69718C5.23054 8.85389 5.34754 8.99098 5.50425 9.00337L7.1524 9.13366C7.30911 9.14605 7.44619 9.02905 7.45858 8.87234L7.48081 8.59107C7.4932 8.43436 7.3762 8.29728 7.21949 8.28489Z" fill="black"/>
<path d="M13.9072 1.55882C13.8224 1.56603 12.8368 6.72443 12.8368 6.72443H14.2655L14.9286 1.48688C14.9286 1.48688 13.992 1.55162 13.9072 1.55882Z" fill="black"/>
<path d="M22.1208 5.14584L21.3538 6.97683L23.6362 7.08547V6.61462L22.1208 5.14584Z" fill="black"/>
<path d="M18.8479 5.70647C18.8597 5.69035 18.8719 5.67384 18.8842 5.65681C19.1822 5.24702 20.5048 4.72532 21.7717 5.15385C22.6959 5.46652 22.5293 6.55251 22.3716 7.11706C22.2959 7.38807 22.069 7.58844 21.7905 7.62919C21.0326 7.74006 19.6329 7.63103 19.2754 7.4452C19.2561 7.43525 19.2371 7.42489 19.2185 7.41454C18.6066 7.07198 18.4325 6.27155 18.8479 5.70647Z" fill="#71C4F4"/>
<path d="M21.0524 7.68946C20.3423 7.68946 19.5317 7.59708 19.2678 7.45974C19.2484 7.44965 19.2293 7.4393 19.2104 7.42881C18.9145 7.26304 18.7035 6.97814 18.6317 6.64672C18.56 6.31596 18.6341 5.9696 18.8346 5.69676L18.8707 5.6471C19.1778 5.225 20.5143 4.71116 21.7767 5.13824C22.7023 5.45131 22.5566 6.51515 22.3873 7.12138C22.3099 7.39815 22.0766 7.60402 21.7927 7.64543C21.5856 7.67557 21.3263 7.68946 21.0523 7.68946H21.0524ZM20.7722 5.00995C19.8864 5.00995 19.1187 5.36207 18.8974 5.66649L18.8611 5.71629C18.6661 5.98153 18.5941 6.31819 18.6638 6.63991C18.7337 6.96202 18.9388 7.23919 19.2265 7.40024C19.245 7.41073 19.2639 7.42082 19.283 7.43065C19.6448 7.61896 21.0494 7.72131 21.7882 7.61306C22.0593 7.57349 22.2822 7.37705 22.3559 7.11286C22.5221 6.51764 22.6665 5.47386 21.7665 5.16943C21.4332 5.05686 21.0949 5.01008 20.7724 5.01008L20.7722 5.00995Z" fill="black"/>
<path opacity="0.3" d="M21.9287 5.48997C21.9287 5.48997 21.6181 5.25002 21.0675 5.22172C20.5168 5.19341 19.0762 5.30375 18.8791 6.11572C18.682 6.92756 22.6172 5.74158 21.9287 5.48997Z" fill="#12181C"/>
<path d="M7.62571 2.59187C7.60357 2.59187 7.58207 2.58073 7.56962 2.56042C7.55075 2.52949 7.56071 2.48913 7.59151 2.47039C9.31451 1.42254 10.8664 0.778963 12.6233 0.383463C12.6588 0.375863 12.6937 0.397751 12.7017 0.433134C12.7097 0.468386 12.6875 0.503374 12.6522 0.511499C10.9097 0.903592 9.36995 1.54231 7.65965 2.5823C7.64904 2.58886 7.63724 2.59187 7.62571 2.59187Z" fill="#71C4F4"/>
<path d="M13.1638 0.310075C13.1317 0.310075 13.1038 0.286489 13.0989 0.253858C13.0938 0.218082 13.1186 0.184926 13.1545 0.179684L13.9954 0.0583352C14.0309 0.0534864 14.0644 0.0779937 14.0696 0.113901C14.0747 0.149676 14.0499 0.182829 14.014 0.18807L13.1731 0.309423C13.17 0.309816 13.1669 0.310075 13.1638 0.310075Z" fill="#71C4F4"/>
</svg>
