<svg width="139" height="140" viewBox="0 0 139 140" fill="none" xmlns="http://www.w3.org/2000/svg">
<g filter="url(#filter0_dddddd_449_16311)">
<path d="M69.5 35V105M52 88.5617L57.1275 92.4058C63.9583 97.5333 75.0358 97.5333 81.8725 92.4058C88.7092 87.2783 88.7092 78.9717 81.8725 73.8442C78.46 71.2775 73.98 70 69.5 70C65.2708 70 61.0417 68.7167 57.8158 66.1558C51.3642 61.0283 51.3642 52.7217 57.8158 47.5942C64.2675 42.4667 74.7325 42.4667 81.1842 47.5942L83.605 49.5192M122 70C122 76.8944 120.642 83.7213 118.004 90.0909C115.365 96.4605 111.498 102.248 106.623 107.123C101.748 111.998 95.9605 115.865 89.5909 118.504C83.2213 121.142 76.3944 122.5 69.5 122.5C62.6056 122.5 55.7787 121.142 49.4091 118.504C43.0395 115.865 37.252 111.998 32.3769 107.123C27.5018 102.248 23.6347 96.4605 20.9963 90.0909C18.358 83.7213 17 76.8944 17 70C17 56.0761 22.5312 42.7226 32.3769 32.8769C42.2226 23.0312 55.5761 17.5 69.5 17.5C83.4239 17.5 96.7774 23.0312 106.623 32.8769C116.469 42.7226 122 56.0761 122 70Z" stroke="#71C4F4" stroke-width="2" stroke-linecap="round" stroke-linejoin="round"/>
</g>
<defs>
<filter id="filter0_dddddd_449_16311" x="0.268703" y="0.768703" width="138.463" height="138.463" filterUnits="userSpaceOnUse" color-interpolation-filters="sRGB">
<feFlood flood-opacity="0" result="BackgroundImageFix"/>
<feColorMatrix in="SourceAlpha" type="matrix" values="0 0 0 0 0 0 0 0 0 0 0 0 0 0 0 0 0 0 127 0" result="hardAlpha"/>
<feOffset/>
<feGaussianBlur stdDeviation="0.187277"/>
<feColorMatrix type="matrix" values="0 0 0 0 0.443137 0 0 0 0 0.768627 0 0 0 0 0.956863 0 0 0 1 0"/>
<feBlend mode="normal" in2="BackgroundImageFix" result="effect1_dropShadow_449_16311"/>
<feColorMatrix in="SourceAlpha" type="matrix" values="0 0 0 0 0 0 0 0 0 0 0 0 0 0 0 0 0 0 127 0" result="hardAlpha"/>
<feOffset/>
<feGaussianBlur stdDeviation="0.374555"/>
<feColorMatrix type="matrix" values="0 0 0 0 0.443137 0 0 0 0 0.768627 0 0 0 0 0.956863 0 0 0 1 0"/>
<feBlend mode="normal" in2="effect1_dropShadow_449_16311" result="effect2_dropShadow_449_16311"/>
<feColorMatrix in="SourceAlpha" type="matrix" values="0 0 0 0 0 0 0 0 0 0 0 0 0 0 0 0 0 0 127 0" result="hardAlpha"/>
<feOffset/>
<feGaussianBlur stdDeviation="1.31094"/>
<feColorMatrix type="matrix" values="0 0 0 0 0.443137 0 0 0 0 0.768627 0 0 0 0 0.956863 0 0 0 1 0"/>
<feBlend mode="normal" in2="effect2_dropShadow_449_16311" result="effect3_dropShadow_449_16311"/>
<feColorMatrix in="SourceAlpha" type="matrix" values="0 0 0 0 0 0 0 0 0 0 0 0 0 0 0 0 0 0 127 0" result="hardAlpha"/>
<feOffset/>
<feGaussianBlur stdDeviation="2.62188"/>
<feColorMatrix type="matrix" values="0 0 0 0 0.443137 0 0 0 0 0.768627 0 0 0 0 0.956863 0 0 0 1 0"/>
<feBlend mode="normal" in2="effect3_dropShadow_449_16311" result="effect4_dropShadow_449_16311"/>
<feColorMatrix in="SourceAlpha" type="matrix" values="0 0 0 0 0 0 0 0 0 0 0 0 0 0 0 0 0 0 127 0" result="hardAlpha"/>
<feOffset/>
<feGaussianBlur stdDeviation="4.49466"/>
<feColorMatrix type="matrix" values="0 0 0 0 0.443137 0 0 0 0 0.768627 0 0 0 0 0.956863 0 0 0 1 0"/>
<feBlend mode="normal" in2="effect4_dropShadow_449_16311" result="effect5_dropShadow_449_16311"/>
<feColorMatrix in="SourceAlpha" type="matrix" values="0 0 0 0 0 0 0 0 0 0 0 0 0 0 0 0 0 0 127 0" result="hardAlpha"/>
<feOffset/>
<feGaussianBlur stdDeviation="7.86565"/>
<feColorMatrix type="matrix" values="0 0 0 0 0.443137 0 0 0 0 0.768627 0 0 0 0 0.956863 0 0 0 1 0"/>
<feBlend mode="normal" in2="effect5_dropShadow_449_16311" result="effect6_dropShadow_449_16311"/>
<feBlend mode="normal" in="SourceGraphic" in2="effect6_dropShadow_449_16311" result="shape"/>
</filter>
</defs>
</svg>
