<svg width="56" height="24" viewBox="0 0 56 24" fill="none" xmlns="http://www.w3.org/2000/svg">
<g clip-path="url(#clip0_562_33855)">
<path d="M18.6045 19.4887C18.6045 19.4887 7.44121 19.1433 7.39626 19.1191C6.6901 18.7398 7.08194 16.8635 7.08194 16.8635L8.57898 13.0775L10.98 10.7606L15.9796 12.0603L18.1783 12.7839L19.5798 17.0612L18.6045 19.4885V19.4887Z" fill="#71C4F4"/>
<path opacity="0.5" d="M18.6045 19.4887C18.6045 19.4887 7.44121 19.1433 7.39626 19.1191C6.6901 18.7398 7.08194 16.8635 7.08194 16.8635L8.57898 13.0775L10.98 10.7606L15.9796 12.0603L18.1783 12.7839L19.5798 17.0612L18.6045 19.4885V19.4887Z" fill="black"/>
<path d="M27.4552 2.40288C27.4552 2.40288 25.8074 1.56298 25.3638 1.53127C24.9202 1.49957 8.96581 1.2777 8.60144 1.37283C8.23708 1.46795 7.25494 2.01334 7.11228 2.21609L8.01575 2.815L10.582 2.25001C10.582 2.25001 10.8512 1.72143 11.3423 1.70567C11.8335 1.68982 14.9705 1.70567 14.9705 1.70567V2.29824H16.7608V1.86412L24.0329 1.94339C24.0329 1.94339 24.5399 2.33956 24.6032 2.60899C24.6666 2.87842 27.455 2.40298 27.455 2.40298L27.4552 2.40288Z" fill="#263238"/>
<path d="M52.1742 18.7658C52.1742 18.7658 41.0733 19.1616 41.1016 19.1192C41.1298 19.0767 40.3954 16.3078 40.3954 16.3078L41.8924 12.5218L44.2934 10.205L49.2931 11.5046L51.4918 12.2284L52.8933 16.5056L52.1742 18.7658Z" fill="#71C4F4"/>
<path opacity="0.5" d="M52.1742 18.7658C52.1742 18.7658 41.0733 19.1616 41.1016 19.1192C41.1298 19.0767 40.3954 16.3078 40.3954 16.3078L41.8924 12.5218L44.2934 10.205L49.2931 11.5046L51.4918 12.2284L52.8933 16.5056L52.1742 18.7658Z" fill="black"/>
<path d="M2.05354 13.1541L2.29668 7.72198L6.30891 2.20888C6.30891 2.20888 25.2351 2.37108 29.8552 2.57372C34.4753 2.77637 40.5544 8.12737 40.5544 8.12737C45.6669 8.49644 50.3602 9.12264 53.8866 10.4646C55.0312 10.9694 55.1374 11.2528 55.4004 12.2284V18.2279C55.0217 18.7222 53.1445 19.1192 53.1445 19.1192L51.9619 19.0311C51.9074 17.2595 51.3171 12.4613 46.4939 12.8912C42.3514 13.2604 41.5615 17.3715 41.4589 19.792L18.0989 19.8428C18.0443 19.7397 18.0101 19.6739 18.0101 19.6739C18.0101 19.6739 18.4485 12.3649 12.5444 12.8912C8.37262 13.263 7.60114 17.4296 7.50748 19.8428H7.11949L2.0036 18.2942C1.38352 18.1064 0.959404 17.5348 0.959404 16.8868V13.9648L2.05365 13.154L2.05354 13.1541Z" fill="#71C4F4"/>
<path d="M39.4366 8.65892C39.4366 8.65892 10.1874 8.35327 10.1596 8.26996C10.1319 8.18656 7.27086 4.76912 7.27086 4.76912L8.99307 2.96316L29.2743 3.17561C30.0719 3.18695 31.0974 3.37884 31.865 3.59551C32.7624 3.8489 33.9386 4.25803 34.8812 4.85243C36.1589 5.65822 39.3533 7.40863 39.4366 8.65892Z" fill="#263238"/>
<path d="M26.8639 8.04983L26.5024 3.64654C27.8712 3.57457 29.2251 3.60445 30.0638 3.7433C30.0638 3.7433 31.9246 3.88589 33.7831 4.96341C34.8233 5.56645 38.1493 7.25528 37.8671 8.25584L26.864 8.04992L26.8639 8.04983Z" fill="#71C4F4"/>
<path d="M25.1577 8.03541V3.64058L16.7087 3.4657L15.7187 7.77588L25.1577 8.03541Z" fill="#71C4F4"/>
<path d="M14.9399 7.73533L15.7936 3.4657L9.2795 3.41381L8.01561 4.8997L10.28 7.67066L14.9399 7.73533Z" fill="#71C4F4"/>
<path opacity="0.5" d="M26.8639 8.04983L26.5024 3.64654C27.8712 3.57457 29.2251 3.60445 30.0638 3.7433C30.0638 3.7433 31.9246 3.88589 33.7831 4.96341C34.8233 5.56645 38.1493 7.25528 37.8671 8.25584L26.864 8.04992L26.8639 8.04983Z" fill="#12181C"/>
<path opacity="0.5" d="M25.1577 8.03541V3.64058L16.7087 3.4657L15.7187 7.77588L25.1577 8.03541Z" fill="#12181C"/>
<path opacity="0.5" d="M14.9399 7.73533L15.7936 3.4657L9.2795 3.41381L8.01561 4.8997L10.28 7.67066L14.9399 7.73533Z" fill="#12181C"/>
<path d="M8.54088 14.2511L8.56335 14.1576C7.75384 13.9619 6.44163 13.6288 6.32607 13.5589C6.19946 13.3483 4.66716 11.2423 4.18676 10.5829L4.10904 10.6396C4.94353 11.7847 6.2007 13.5203 6.24432 13.6079C6.25277 13.6339 6.27601 13.7034 8.54088 14.2511Z" fill="#71C4F4"/>
<path d="M4.78772 8.25574L4.14795 10.6112H2.16734L2.29663 7.72198L3.47753 6.09935L4.78772 8.25574Z" fill="#D7504D"/>
<path d="M14.3141 13.0027H14.4102V10.0884C14.4102 9.43377 15.1532 8.07221 15.1606 8.05847L15.0764 8.01235C15.0453 8.06904 14.314 9.40917 14.314 10.0884L14.3141 13.0027Z" fill="#263238"/>
<path d="M26.2422 18.0644C26.2459 18.0576 26.6193 17.3707 26.8542 16.2632C27.0887 15.1571 26.9942 11.1928 26.9901 11.0246L26.9883 11.013L26.2462 8.34241L26.1537 8.36816L26.8941 11.0329C26.8984 11.2116 26.9882 15.1675 26.76 16.2433C26.5283 17.3358 26.1616 18.0114 26.1577 18.0181L26.242 18.0644H26.2422Z" fill="#263238"/>
<path d="M33.2677 18.1043C36.2927 18.1043 38.6029 18.1005 38.7177 18.089C38.756 18.0853 38.7961 18.0836 38.8377 18.082C39.1762 18.0684 39.5975 18.0516 39.8968 16.9746C40.215 15.8299 40.3484 13.6797 40.3124 12.2376C40.2789 10.8956 39.4141 8.55985 39.4054 8.53631L39.3153 8.56994C39.3239 8.5932 40.1832 10.9141 40.2162 12.24C40.2522 13.6751 40.1199 15.8131 39.8041 16.9488C39.5236 17.9584 39.1411 17.9737 38.8338 17.986C38.7903 17.9877 38.7482 17.9895 38.7081 17.9935C38.377 18.0265 18.6424 17.9935 18.4431 17.9932L18.4429 18.0893C18.9786 18.0903 27.4455 18.1043 33.2677 18.1043Z" fill="#263238"/>
<path d="M6.30884 2.20888H4.14792V2.8149L4.99346 4.01628L6.30884 2.20888Z" fill="#71C4F4"/>
<path opacity="0.3" d="M7.61338 15.5195L2.05348 13.1541L0.959237 13.9648L7.72058 16.0638L7.61338 15.5195Z" fill="black"/>
<path opacity="0.3" d="M41.4589 19.7909C41.4589 19.7909 40.1642 18.1271 39.4291 18.0675C38.694 18.0079 18.443 18.0675 18.443 18.0675L21.3668 18.4906C21.3668 18.4906 38.3632 18.472 38.9145 18.9489C39.4658 19.4258 39.8726 19.7953 39.8726 19.7953L41.459 19.7908L41.4589 19.7909Z" fill="black"/>
<path d="M46.8706 22.6133C44.3404 22.6133 42.2894 20.5663 42.2894 18.0413C42.2894 15.5162 44.3404 13.4692 46.8706 13.4692C49.4007 13.4692 51.4518 15.5162 51.4518 18.0413C51.4518 20.5663 49.4007 22.6133 46.8706 22.6133Z" fill="#263238"/>
<g opacity="0.3">
<path d="M46.8723 15.5195H46.8698C46.7463 15.5195 46.646 15.6199 46.646 15.7434V17.1803C46.646 17.3039 46.7463 17.4042 46.8698 17.4042H46.8723C46.9959 17.4042 47.0961 17.3039 47.0961 17.1804V15.7435C47.0961 15.62 46.9958 15.5197 46.8723 15.5197V15.5195Z" fill="#12181C"/>
</g>
<g opacity="0.3">
<path d="M46.8698 18.6778H46.8722C46.9959 18.6778 47.0961 18.7781 47.0961 18.9017V20.3385C47.0961 20.4621 46.9959 20.5624 46.8722 20.5624H46.8698C46.7462 20.5624 46.646 20.4621 46.646 20.3385V18.9017C46.646 18.7781 46.7462 18.6778 46.8698 18.6778Z" fill="#12181C"/>
</g>
<g opacity="0.3">
<path d="M46.0139 17.8059C46.1211 17.8664 46.257 17.8288 46.3176 17.7219C46.3798 17.6149 46.3435 17.4779 46.2365 17.4157L44.9892 16.6936L44.9887 16.6933C44.8813 16.6318 44.7442 16.6687 44.6825 16.776L44.6822 16.7766C44.6206 16.8838 44.6576 17.0206 44.765 17.0821L46.0109 17.8042L46.0139 17.806V17.8059Z" fill="#12181C"/>
</g>
<g opacity="0.3">
<path d="M49.0597 19.2959L49.06 19.2953C49.1217 19.1881 49.0846 19.0512 48.9772 18.9897L47.7313 18.2676C47.6238 18.2053 47.486 18.2414 47.4231 18.3485C47.3609 18.4563 47.3978 18.5938 47.5056 18.6561L48.7515 19.3782C48.8594 19.4404 48.9973 19.4035 49.0596 19.2959H49.0597Z" fill="#12181C"/>
</g>
<g opacity="0.3">
<path d="M44.6828 19.3022C44.7448 19.4092 44.882 19.4459 44.9892 19.384L46.2365 18.6619C46.3438 18.5991 46.38 18.4616 46.3175 18.3543C46.2552 18.2474 46.1179 18.2112 46.0108 18.2734L44.7649 18.9955L44.7644 18.9959C44.6572 19.0578 44.6205 19.1947 44.6824 19.3017L44.6827 19.3023L44.6828 19.3022Z" fill="#12181C"/>
</g>
<g opacity="0.3">
<path d="M47.4245 17.7241C47.4871 17.8307 47.6245 17.8666 47.7314 17.8041L48.9772 17.082L48.9778 17.0817C49.085 17.0198 49.1217 16.8829 49.0597 16.7759C48.9974 16.6683 48.8594 16.6315 48.7516 16.6935L47.5056 17.4156L47.5051 17.416C47.3978 17.4779 47.3611 17.6148 47.4231 17.7219L47.4245 17.7242V17.7241Z" fill="#12181C"/>
</g>
<path d="M46.8703 17.664C46.6618 17.664 46.4927 17.8327 46.4927 18.041C46.4927 18.2492 46.6618 18.4179 46.8703 18.4179C47.0789 18.4179 47.2479 18.2492 47.2479 18.041C47.2479 17.8327 47.0789 17.664 46.8703 17.664Z" fill="#263238"/>
<path d="M12.899 22.6133C10.3689 22.6133 8.3178 20.5663 8.3178 18.0413C8.3178 15.5162 10.3689 13.4692 12.899 13.4692C15.4291 13.4692 17.4802 15.5162 17.4802 18.0413C17.4802 20.5663 15.4291 22.6133 12.899 22.6133Z" fill="#263238"/>
<g opacity="0.3">
<path d="M12.6748 15.7433V17.1802C12.6748 17.3039 12.7752 17.404 12.8991 17.404H12.9006C13.0244 17.404 13.1249 17.3038 13.1249 17.1802V15.7433C13.1249 15.6197 13.0245 15.5195 12.9006 15.5195H12.8991C12.7753 15.5195 12.6748 15.6198 12.6748 15.7433Z" fill="#12181C"/>
</g>
<g opacity="0.3">
<path d="M12.6748 18.9016V20.3385C12.6748 20.4622 12.7752 20.5624 12.8991 20.5624H12.9006C13.0244 20.5624 13.1249 20.4622 13.1249 20.3385V18.9016C13.1249 18.778 13.0245 18.6777 12.9006 18.6777H12.8991C12.7753 18.6777 12.6748 18.778 12.6748 18.9016Z" fill="#12181C"/>
</g>
<g opacity="0.3">
<path d="M12.0427 17.8059C12.1499 17.8664 12.2858 17.8288 12.3464 17.7219C12.4087 17.6149 12.3723 17.4779 12.2653 17.4157L11.0181 16.6936L11.0175 16.6933C10.9101 16.6318 10.773 16.6687 10.7113 16.776L10.711 16.7766C10.6494 16.8838 10.6864 17.0206 10.7938 17.0821L12.0397 17.8042L12.0427 17.806V17.8059Z" fill="#12181C"/>
</g>
<g opacity="0.3">
<path d="M15.0884 19.2959L15.0887 19.2953C15.1504 19.1881 15.1133 19.0512 15.0059 18.9897L13.7601 18.2676C13.6526 18.2053 13.5147 18.2414 13.4518 18.3485C13.3896 18.4563 13.4265 18.5938 13.5343 18.6561L14.7802 19.3782C14.888 19.4404 15.026 19.4035 15.0884 19.2959Z" fill="#12181C"/>
</g>
<g opacity="0.3">
<path d="M10.7115 19.3022C10.7735 19.4092 10.9107 19.4459 11.0179 19.384L12.2652 18.6619C12.3725 18.5991 12.4087 18.4616 12.3462 18.3543C12.2838 18.2474 12.1466 18.2112 12.0395 18.2734L10.7936 18.9955L10.793 18.9959C10.6858 19.0578 10.6491 19.1947 10.7112 19.3017L10.7115 19.3023V19.3022Z" fill="#12181C"/>
</g>
<g opacity="0.3">
<path d="M13.4531 17.7241C13.5158 17.8307 13.6531 17.8666 13.7601 17.8041L15.0059 17.082L15.0065 17.0817C15.1137 17.0198 15.1504 16.8829 15.0884 16.7759C15.026 16.6683 14.8881 16.6315 14.7801 16.6935L13.5343 17.4156L13.5337 17.416C13.4265 17.4779 13.3898 17.6148 13.4518 17.7219L13.4531 17.7242V17.7241Z" fill="#12181C"/>
</g>
<path d="M12.899 17.664C12.6905 17.664 12.5214 17.8327 12.5214 18.041C12.5214 18.2492 12.6905 18.4179 12.899 18.4179C13.1076 18.4179 13.2767 18.2492 13.2767 18.041C13.2767 17.8327 13.1077 17.664 12.899 17.664Z" fill="#263238"/>
<path opacity="0.5" d="M35.0155 6.30498C35.0155 6.30498 32.4485 4.14917 29.6703 3.93499C27.038 3.73205 26.7347 3.94374 26.7347 3.94374L26.9638 5.93226L35.0156 6.30508L35.0155 6.30498Z" fill="#12181C"/>
<path opacity="0.5" d="M24.9935 3.84697L24.9259 5.75056L16.4319 5.46422L16.8588 3.73349L24.9935 3.84697Z" fill="#12181C"/>
<path opacity="0.5" d="M15.5399 3.7335L15.2039 5.24831L8.66618 4.49095L9.47147 3.64673L15.5399 3.7335Z" fill="#12181C"/>
<path d="M36.3174 7.28123C36.3296 7.08156 36.4871 6.92292 36.6864 6.90678C37.2959 6.85739 38.4817 6.91869 38.3916 8.16206C38.2998 9.42974 37.0911 9.21738 36.5164 9.04241C36.3396 8.9886 36.2236 8.82025 36.2348 8.63577L36.3174 7.28113L36.3174 7.28123Z" fill="#71C4F4"/>
<path d="M38.3915 8.16215L37.0084 8.26237C37.0084 8.26237 36.9996 8.56216 37.1671 8.59743C37.3345 8.63269 38.2976 8.59743 38.2976 8.59743C38.2976 8.59743 38.3881 8.35202 38.3916 8.16215H38.3915Z" fill="#D7504D"/>
<path d="M37.3147 9.2242C37.5678 9.2242 37.8167 9.17375 38.0186 9.03299C38.2688 8.8584 38.4105 8.56658 38.4395 8.1657C38.4678 7.77473 38.3745 7.46408 38.1621 7.2425C37.8292 6.89505 37.2713 6.83691 36.8612 6.84902C36.5381 6.85882 36.2796 7.11009 36.2599 7.43362L36.1897 8.58628C36.1752 8.82486 36.3255 9.03789 36.5551 9.10419C36.7799 9.16895 37.0496 9.2242 37.3147 9.2242ZM36.9599 6.94357C37.3374 6.94357 37.8089 7.01266 38.0927 7.30899C38.2855 7.5101 38.37 7.79596 38.3436 8.15879C38.3167 8.5293 38.1889 8.79709 37.9635 8.95419C37.5612 9.23486 36.925 9.11082 36.5816 9.01185C36.3955 8.95813 36.2737 8.78556 36.2855 8.59214L36.3557 7.43948C36.3724 7.16582 36.5909 6.95328 36.8641 6.94511C36.8951 6.94415 36.9271 6.94357 36.9599 6.94357Z" fill="#263238"/>
<path opacity="0.3" d="M29.0226 11.1819C28.2992 11.1819 27.7128 10.8851 27.7128 10.5191C27.7128 10.153 28.2992 9.85626 29.0226 9.85626C29.7459 9.85626 30.3323 10.153 30.3323 10.5191C30.3323 10.8851 29.7459 11.1819 29.0226 11.1819Z" fill="black"/>
<path d="M27.6843 10.2676H30.3608V10.7706H27.6843V10.2676Z" fill="#71C4F4"/>
<path opacity="0.3" d="M16.4319 11.1819C15.7085 11.1819 15.1222 10.8851 15.1222 10.5191C15.1222 10.153 15.7085 9.85626 16.4319 9.85626C17.1552 9.85626 17.7416 10.153 17.7416 10.5191C17.7416 10.8851 17.1552 11.1819 16.4319 11.1819Z" fill="black"/>
<path d="M15.0936 10.2676H17.7701V10.7706H15.0936V10.2676Z" fill="#71C4F4"/>
<path d="M8.31815 10.8088C8.9221 10.8088 9.41345 10.3429 9.41345 9.77046C9.41345 9.19797 8.9221 8.73214 8.31815 8.73214C7.71421 8.73214 7.22275 9.19797 7.22275 9.77046C7.22275 10.3429 7.71411 10.8088 8.31815 10.8088ZM8.31815 8.82832C8.86917 8.82832 9.31739 9.25091 9.31739 9.77055C9.31739 10.2902 8.86917 10.7128 8.31815 10.7128C7.76714 10.7128 7.31881 10.2902 7.31881 9.77055C7.31881 9.25091 7.76714 8.82832 8.31815 8.82832Z" fill="#263238"/>
<path opacity="0.3" d="M51.0546 10.7833H49.5289C49.5289 10.7833 52.8821 13.4348 53.6785 13.541C54.4748 13.6472 54.8549 13.3475 54.8549 13.3475L54.9197 11.8305C54.9197 11.8305 54.482 11.2175 53.7853 11.0475C52.9809 10.8511 51.0546 10.7832 51.0546 10.7832V10.7833Z" fill="black"/>
<path d="M51.0581 11.1363L50.8925 11.7424C50.8925 11.7424 52.882 13.1087 53.6785 13.2149C54.4748 13.3211 54.8588 13.0312 54.8588 13.0312L54.9198 11.8306C54.9198 11.8306 54.3953 11.0642 53.6786 11.0377C52.9619 11.0111 51.0582 11.1363 51.0582 11.1363H51.0581Z" fill="#12181C"/>
<path opacity="0.3" d="M39.6095 8.38766C39.6095 8.38766 39.9791 8.76702 40.1019 8.7772C40.2247 8.78739 50.8021 10.5192 50.8021 10.5192C50.8021 10.5192 48.2888 9.78035 46.2542 9.38745C43.0444 8.76769 39.6095 8.38766 39.6095 8.38766Z" fill="black"/>
<path opacity="0.3" d="M53.7862 14.3988C54.3959 14.4327 54.3137 15.5195 54.3137 15.5195L55.4004 16.7629V18.2279C55.0217 18.7222 53.1445 19.1192 53.1445 19.1192L51.9619 19.0311C51.9332 18.0992 51.7559 16.3299 50.8925 14.9246C50.8925 14.9246 53.1765 14.365 53.7862 14.3988Z" fill="black"/>
<path d="M55.4004 13.9075C55.4004 13.9075 54.6543 13.7115 54.5184 14.3595C54.326 15.2769 54.0348 17.4103 54.0348 17.4103C54.0348 17.4103 55.0021 16.9358 55.4004 17.2973V13.9075Z" fill="#263238"/>
<path opacity="0.5" d="M3.47752 6.42211C3.47752 6.42211 4.32614 7.98785 4.25601 8.03541C4.03862 8.18243 2.56734 9.08737 2.5511 9.03164C2.47838 8.78191 2.50307 8.23825 2.52737 7.90666C2.54034 7.72976 2.60528 7.56074 2.71315 7.41998L3.47752 6.42211Z" fill="#12181C"/>
</g>
<defs>
<clipPath id="clip0_562_33855">
<rect width="55" height="23" fill="white" transform="matrix(-1 0 0 1 55.5 0.5)"/>
</clipPath>
</defs>
</svg>
