<svg width="89" height="15" viewBox="0 0 89 15" fill="none" xmlns="http://www.w3.org/2000/svg">
<path d="M0 14.882V1.12058H5.36697C6.57274 1.12058 7.60157 1.31062 8.45347 1.6907C9.30537 2.07077 9.96068 2.62123 10.4194 3.34207C10.8781 4.06291 11.1075 4.92136 11.1075 5.91743C11.1075 6.9135 10.8781 7.77195 10.4194 8.49279C9.96068 9.20052 9.30537 9.74443 8.45347 10.1245C7.60157 10.5046 6.57274 10.6946 5.36697 10.6946H1.96592V14.882H0ZM9.20053 14.882L5.70118 9.8886H7.80472L11.3434 14.882H9.20053ZM0 9.02359H5.308C6.56619 9.02359 7.51638 8.75492 8.15859 8.21756C8.81389 7.6671 9.14155 6.90039 9.14155 5.91743C9.14155 4.93447 8.81389 4.17431 8.15859 3.63696C7.51638 3.09961 6.56619 2.83093 5.308 2.83093H0V9.02359Z" fill="#71C4F4"/>
<path d="M15.674 14.882V4.46265H17.5613V14.882H15.674ZM16.6177 2.4574C16.2507 2.4574 15.9427 2.33945 15.6937 2.10354C15.4578 1.86763 15.3398 1.57929 15.3398 1.23853C15.3398 0.884666 15.4578 0.589777 15.6937 0.353866C15.9427 0.117955 16.2507 0 16.6177 0C16.9847 0 17.2861 0.117955 17.522 0.353866C17.771 0.576671 17.8955 0.858453 17.8955 1.19921C17.8955 1.55308 17.7776 1.85452 17.5417 2.10354C17.3058 2.33945 16.9978 2.4574 16.6177 2.4574Z" fill="#71C4F4"/>
<path d="M26.6617 15C25.6525 15 24.7482 14.7772 23.9487 14.3316C23.1623 13.886 22.5398 13.2634 22.0811 12.464C21.6223 11.6645 21.393 10.7339 21.393 9.67235C21.393 8.61075 21.6223 7.68676 22.0811 6.90039C22.5398 6.10092 23.1623 5.47837 23.9487 5.03276C24.7482 4.58716 25.6525 4.36435 26.6617 4.36435C27.5398 4.36435 28.3327 4.56094 29.0405 4.95413C29.7482 5.34731 30.3117 5.93709 30.7311 6.72346C31.1636 7.50983 31.3799 8.49279 31.3799 9.67235C31.3799 10.8519 31.1702 11.8349 30.7508 12.6212C30.3445 13.4076 29.7875 14.0039 29.0798 14.4102C28.372 14.8034 27.566 15 26.6617 15ZM26.819 13.3486C27.4743 13.3486 28.0641 13.1979 28.5883 12.8965C29.1257 12.595 29.545 12.1691 29.8465 11.6186C30.161 11.055 30.3183 10.4063 30.3183 9.67235C30.3183 8.92529 30.161 8.28309 29.8465 7.74574C29.545 7.19528 29.1257 6.76933 28.5883 6.46789C28.0641 6.16645 27.4743 6.01573 26.819 6.01573C26.1505 6.01573 25.5542 6.16645 25.0299 6.46789C24.5057 6.76933 24.0863 7.19528 23.7718 7.74574C23.4572 8.28309 23.2999 8.92529 23.2999 9.67235C23.2999 10.4063 23.4572 11.055 23.7718 11.6186C24.0863 12.1691 24.5057 12.595 25.0299 12.8965C25.5542 13.1979 26.1505 13.3486 26.819 13.3486ZM30.3773 14.882V12.0708L30.4952 9.65269L30.2986 7.2346V0.294888H32.1859V14.882H30.3773Z" fill="#71C4F4"/>
<path d="M41.5879 15C40.4739 15 39.4909 14.7706 38.639 14.3119C37.8002 13.8532 37.1449 13.2241 36.6731 12.4246C36.2144 11.6252 35.985 10.7077 35.985 9.67235C35.985 8.63696 36.2078 7.71953 36.6534 6.92005C37.1122 6.12058 37.7347 5.49803 38.5211 5.05242C39.3205 4.59371 40.2183 4.36435 41.2144 4.36435C42.2236 4.36435 43.1148 4.58716 43.888 5.03276C44.6613 5.47837 45.2642 6.10747 45.6967 6.92005C46.1423 7.71953 46.3651 8.65662 46.3651 9.73132C46.3651 9.80996 46.3585 9.9017 46.3454 10.0066C46.3454 10.1114 46.3389 10.2097 46.3258 10.3014H37.4595V8.94495H45.3428L44.5761 9.41678C44.5892 8.74836 44.4516 8.15203 44.1633 7.62779C43.8749 7.10354 43.4752 6.69725 42.9641 6.40891C42.466 6.10747 41.8828 5.95675 41.2144 5.95675C40.5591 5.95675 39.9758 6.10747 39.4647 6.40891C38.9536 6.69725 38.5538 7.11009 38.2655 7.64744C37.9772 8.17169 37.833 8.77457 37.833 9.45609V9.77064C37.833 10.4653 37.9903 11.0878 38.3048 11.6383C38.6325 12.1756 39.0846 12.595 39.6613 12.8965C40.238 13.1979 40.8998 13.3486 41.6469 13.3486C42.2629 13.3486 42.8199 13.2438 43.3179 13.0341C43.8291 12.8244 44.2747 12.5098 44.6547 12.0904L45.6967 13.3093C45.2249 13.8598 44.6351 14.2792 43.9274 14.5675C43.2327 14.8558 42.4529 15 41.5879 15Z" fill="#71C4F4"/>
<path d="M52.2218 7.62779L60.1641 7.60813L59.3188 9.31848H52.2218V7.62779ZM52.2218 2.83093H50.4525V1.12058H60.1641V2.83093H52.2218Z" fill="#71C4F4"/>
<path d="M69.9314 14.882V12.6802L69.8331 12.2674V8.51245C69.8331 7.71298 69.5972 7.09699 69.1254 6.66448C68.6667 6.21887 67.972 5.99607 67.0415 5.99607C66.4255 5.99607 65.8226 6.10092 65.2329 6.31062C64.6431 6.50721 64.1453 6.77588 63.739 7.11665L62.9527 5.70118C63.49 5.26868 64.132 4.94102 64.879 4.71822C65.6392 4.48231 66.4321 4.36435 67.2578 4.36435C68.6863 4.36435 69.7873 4.71166 70.5605 5.40629C71.3338 6.10092 71.7204 7.16252 71.7204 8.59109V14.882H69.9314ZM66.5107 15C65.7375 15 65.0562 14.8689 64.4664 14.6068C63.8897 14.3447 63.4441 13.9843 63.1296 13.5256C62.815 13.0537 62.6578 12.5229 62.6578 11.9332C62.6578 11.3696 62.7888 10.8585 63.051 10.3997C63.3262 9.94102 63.7652 9.57405 64.3681 9.29882C64.9841 9.02359 65.8095 8.88598 66.8449 8.88598H70.1477V10.2425H66.9236C65.9799 10.2425 65.3443 10.3997 65.0166 10.7143C64.689 11.0288 64.5254 11.4089 64.5254 11.8545C64.5254 12.3657 64.7283 12.7785 65.1346 13.0931C65.5409 13.3945 66.1044 13.5452 66.8253 13.5452C67.533 13.5452 68.149 13.3879 68.6732 13.0734C69.2106 12.7588 69.5972 12.3001 69.8331 11.6972L70.2067 12.9948C69.9576 13.6107 69.5186 14.1022 68.8895 14.4692C68.2604 14.8231 67.4675 15 66.5107 15Z" fill="#71C4F4"/>
<path d="M76.4045 14.882V4.46265H78.2918V14.882H76.4045ZM77.3481 2.4574C76.9811 2.4574 76.6731 2.33945 76.4241 2.10354C76.1882 1.86763 76.0703 1.57929 76.0703 1.23853C76.0703 0.884666 76.1882 0.589777 76.4241 0.353866C76.6731 0.117955 76.9811 0 77.3481 0C77.7151 0 78.0165 0.117955 78.2524 0.353866C78.5014 0.576671 78.626 0.858453 78.626 1.19921C78.626 1.55308 78.508 1.85452 78.2721 2.10354C78.0362 2.33945 77.7282 2.4574 77.3481 2.4574Z" fill="#71C4F4"/>
<path d="M83.0867 14.882V4.46265H84.8954V7.29358L84.7184 6.58585C85.0068 5.86501 85.4917 5.31455 86.1732 4.93447C86.8547 4.55439 87.6935 4.36435 88.6896 4.36435V6.19266C88.6109 6.17955 88.5323 6.173 88.4537 6.173C88.3881 6.173 88.3226 6.173 88.2571 6.173C87.2479 6.173 86.4484 6.47444 85.8587 7.07733C85.2689 7.68021 84.974 8.55177 84.974 9.69201V14.882H83.0867Z" fill="#71C4F4"/>
<path d="M52.2218 14.882H50.4525V7.60813H60.1641V9.31848H52.2218V14.882Z" fill="#71C4F4"/>
</svg>
